<svg id="Layer_1" data-name="Layer 1" xmlns="http://www.w3.org/2000/svg" viewBox="0 0 300 300">
  <g>
    <path d="M249.64,89.75c0-14.59,0-29.67.1-44.51,0-2.58-.5-4.27-1.62-5.31s-2.66-1.38-5-1.18a47.8,47.8,0,0,1-4.79.06c-.73,0-1.48,0-2.23,0H208.58c-29.38,0-59.76,0-89.64-.09h-.1c-3.09,0-5,.58-6.16,1.87s-1.47,3-1.19,5.57a43.26,43.26,0,0,1,.1,5.72c0,.64,0,1.3,0,2l-2.47,0a49.21,49.21,0,0,1-5.63-.08c-2.57-.25-4.4.21-5.6,1.39s-1.72,3.15-1.5,5.93a55.76,55.76,0,0,1,.08,5.81c0,.68,0,1.38,0,2.09H90c-4.14,0-6.22,0-7.44,1.24s-1.23,3.31-1.23,7.47c0,17.72,0,36.57,0,55.06,0,.26,0,.52,0,.78a12.68,12.68,0,0,0,.46,4.34,4.63,4.63,0,0,0,3.45,2.43c1.21.14,2.73-1.51,3-2.59a16.76,16.76,0,0,0,.35-4.35c0-.24,0-.48,0-.72q0-11.3,0-22.57c0-9.22,0-18.75,0-28.13,0-1.4.1-2.83.19-4.22,0-.38,0-.77.07-1.15H211.66V241.24h-9.35c-12.21,0-23.73,0-35.48.13-1.31,0-2.45.91-3.55,1.79a15.7,15.7,0,0,1-1.32,1l-1.13.71,1.11.72a14.7,14.7,0,0,1,1.3,1c1.09.89,2.21,1.82,3.51,1.84,9.31.11,18.79.11,27.95.12,6.38,0,13,0,19.48,0h.07a5.27,5.27,0,0,0,3.95-1.31,5.49,5.49,0,0,0,1.27-4.2c0-2.34,0-4.68,0-7.15V233.3l2.64,0c2.35,0,4.37-.07,6.4.08,2.23.16,3.8-.24,4.8-1.24s1.4-2.48,1.26-4.61-.11-4.35-.08-6.68c0-.86,0-1.73,0-2.64h6.27c4.24,0,6.38,0,7.63-1.26s1.26-3.37,1.26-7.6V105.75Q249.66,97.74,249.64,89.75ZM234.51,62.24c0-4,0-6-1.18-7.22s-3.18-1.2-7.14-1.2H119.06V46.44H241.9v164h-7.39V62.24Zm-15,15.52c0-4.18,0-6.28-1.21-7.52S215,69,210.87,69H104.07V61.52H226.86V225.8h-7.39V186.13Q219.47,131.94,219.46,77.76Z" style="fill: #d9b850"/>
    <path d="M167.43,189.46c-.68-3-1.6-4.68-3.08-5.51s-3.27-.73-5.85.18a151.72,151.72,0,0,1-19.22,5.44c-5.19,1.08-6.76,3.49-5.8,8.88,2.2,12.4-6.44,25-18.87,27.45a24.63,24.63,0,0,1-29-18.24A24.32,24.32,0,0,1,102,178.57c1-.31,2.15-.56,3.27-.8,2.86-.62,5.83-1.25,7.13-3.21,1.41-2.11,1.17-5.15.93-8.09-.09-1.19-.19-2.42-.17-3.52,0-.64,0-1.29,0-1.91,0-.28,0-.56,0-.83,0-1.13,0-2.27,0-3.37a74.27,74.27,0,0,1,.1-7.46c.18-2.37-.21-4-1.25-5.06s-2.86-1.63-5.78-1.52a57.42,57.42,0,0,0-42.9,21.91A60.51,60.51,0,0,0,51.41,214a56.64,56.64,0,0,0,9.12,21.47,60.54,60.54,0,0,0,37.4,24.64,57.48,57.48,0,0,0,11.42,1.16A55.57,55.57,0,0,0,121.18,260a60.24,60.24,0,0,0,38.34-26.53A57.84,57.84,0,0,0,167.43,189.46ZM78,207.59a32.25,32.25,0,0,0,13,20.34,33.22,33.22,0,0,0,23.78,5.33c16.62-2.33,27.34-17.27,26.25-36.45l18.85-5.33c4.88,20.26-4.23,42.38-22.36,54.07-19.09,12.31-43,11-61-3.44C59.45,228.37,53,204.28,60.83,183.55c7.11-18.79,26.28-33,44.14-33h.63v19.4C85.12,175.86,74.57,190.24,78,207.59Z" style="fill: #d9b850"/>
    <path d="M121.71,162.51c10.87,1,18.3,6.63,22.09,16.81.9,2.4,2.15,3.52,4.12,3.52a8.15,8.15,0,0,0,2.28-.38c9-2.7,15.94-4.63,22.44-6.27,2.21-.55,3.56-1.4,4.24-2.64.92-1.68.41-3.78-.21-5.61a59.08,59.08,0,0,0-19.57-27.48,58.07,58.07,0,0,0-31.22-12.53c-4.09-.34-6.28-.45-7.6.76S116.9,132,116.9,136v8.71c0,1.23,0,2.46,0,3.68,0,2.89,0,5.88,0,8.81C116.8,160.62,118.24,162.2,121.71,162.51Zm2.74-7.2V135.57h.17c18.4,0,37.63,14.58,44.47,33.75l-19,5.54C144.79,163.7,136.37,157.29,124.45,155.31Z" style="fill: #d9b850"/>
    <path d="M194.24,90.12a8.39,8.39,0,0,0-4-1.54c-9.65-.15-19.46-.13-28.95-.12H143c-9.35,0-19,0-28.53.12a8.46,8.46,0,0,0-4,1.58,17.09,17.09,0,0,1-1.57.89l-1.43.69,1.37.81a16.86,16.86,0,0,1,1.6,1.12c1.29,1,2.63,2,4.12,2,12.5.09,25.09.14,37.68.14s25.42,0,38.05-.15c1.46,0,2.76-1,4-2a16.9,16.9,0,0,1,1.55-1.14l1.33-.83L195.82,91C195.31,90.75,194.79,90.44,194.24,90.12Z" style="fill: #d9b850"/>
    <path d="M142.8,116.27c1.1,0,1.84-1.16,2.62-2.34a11,11,0,0,1,.83-1.18l.59-.71-.76-.53a10.89,10.89,0,0,1-.92-.75,4.78,4.78,0,0,0-2.69-1.5c-3-.19-6.12-.16-9.1-.13l-3.43,0-3.52,0c-3.13,0-6.37-.08-9.55.15A5.19,5.19,0,0,0,114,111a10.89,10.89,0,0,1-1,.89l-.75.57.64.69a10.49,10.49,0,0,1,.8,1c.73,1,1.48,2,2.53,2,4.9.13,9.61.19,14.2.19C134.6,116.43,138.72,116.37,142.8,116.27Z" style="fill: #d9b850"/>
    <path d="M199.4,126.77c-.76-.88-1.55-1.78-2.6-1.82-6.86-.26-13.07-.27-19,0-1.13,0-2,1.08-2.82,2.08-.33.39-.64.76-.94,1l-.76.7.85.6c.33.24.67.54,1,.85a5.89,5.89,0,0,0,2.93,1.73,28.83,28.83,0,0,0,3.71.2c.87,0,1.74,0,2.59,0s1.64-.05,2.45-.05,1.87,0,2.78,0a53.38,53.38,0,0,0,7-.18c1.11-.14,1.91-1.1,2.7-2a11,11,0,0,1,.88-1l.67-.63-.68-.61A9.41,9.41,0,0,1,199.4,126.77Z" style="fill: #d9b850"/>
    <path d="M167.44,110c.82,1,1.67,1.94,2.79,2q3.86.24,7.77.24t7.53-.22c1.12-.06,2-1,2.78-2,.33-.36.63-.71.93-1l.75-.67-.79-.62a12.67,12.67,0,0,1-1-.88,5.91,5.91,0,0,0-2.82-1.85,23.94,23.94,0,0,0-5.14-.18c-.68,0-1.38,0-2.05,0h0c-.72,0-1.49,0-2.22,0a28.94,28.94,0,0,0-5.5.17,6,6,0,0,0-2.91,1.78,10.84,10.84,0,0,1-1,.86l-.83.61.77.7A13.45,13.45,0,0,1,167.44,110Z" style="fill: #d9b850"/>
    <path d="M192.31,180.12a9.41,9.41,0,0,1-2.86-.1c-1.75-.22-3.57-.46-4.79.57a3.56,3.56,0,0,0-1.11,2.72,4,4,0,0,0,1,3.29c1.16,1.06,2.93.82,4.49.61a5.64,5.64,0,0,1,2.53,0l.17.08H192c.71,0,1.39,0,2,.07s1.17.06,1.73.06a7.81,7.81,0,0,0,2.38-.3,5.71,5.71,0,0,0,2.54-2.2c.29-.36.56-.7.84-1l.64-.66-.72-.58c-.28-.23-.55-.5-.85-.78a5.54,5.54,0,0,0-2.51-1.71A13.55,13.55,0,0,0,192.31,180.12Z" style="fill: #d9b850"/>
  </g>
</svg>
