<svg xmlns="http://www.w3.org/2000/svg" xmlns:xlink="http://www.w3.org/1999/xlink" viewBox="0 0 300 300">
  <defs>
    <linearGradient id="linear-gradient" x1="235.36" y1="123.27" x2="207.74" y2="272.93" gradientUnits="userSpaceOnUse">
      <stop offset="0.16" stop-color="#d9b850"/>
      <stop offset="1" stop-color="#a38a3d"/>
    </linearGradient>
  </defs>
  <g id="Layer_3" data-name="Layer 3">
    <circle cx="150" cy="150" r="124.79" style="fill: #fafafa"/>
  </g>
  <g id="Layer_1_copy" data-name="Layer 1 copy">
    <g>
      <path d="M205.09,160.11a1.64,1.64,0,0,0,1.84-1.88V100.6c0-.84,0-1.67,0-2.51a1.45,1.45,0,0,0-.69-1.35,2.94,2.94,0,0,0-1.3-.28q-5.74,0-11.5,0h-4.07l-.15-1c-.07-.48-.15-1-.21-1.42a1.65,1.65,0,0,0-1.87-1.63c-1.46,0-2.92,0-4.39,0h-8.2A1.73,1.73,0,0,0,172.76,94c0,.5-.13,1-.22,1.49,0,.22-.08.44-.11.65l-.05.31h-13.9l-.15-.91c-.07-.45-.14-.89-.2-1.32-.15-1.27-.7-1.76-1.94-1.76H143.76a1.67,1.67,0,0,0-1.89,1.7c-.05.44-.12.87-.19,1.32l-.15,1h-14l-.14-1c-.06-.48-.13-1-.18-1.43a1.64,1.64,0,0,0-1.77-1.57H112.92a1.66,1.66,0,0,0-1.9,1.7c-.07.47-.14.93-.22,1.41l-.14.89h-5L95,96.45c-1.29,0-1.89.62-1.9,1.94v3.5l0,33.48q0,4,0,8.1v14.92a1.61,1.61,0,0,0,1.72,1.72H98.9l0,.43a.9.9,0,0,1,0,.22v1.44c0,1.4,0,2.79,0,4.18a1.82,1.82,0,0,0,.49,1.33,1.62,1.62,0,0,0,1.19.47h38.53l0,.5a1.56,1.56,0,0,1,0,.2v2.61q0,10.42,0,20.86a1.37,1.37,0,0,1-.25.79q-4,5.38-8,10.74a1.13,1.13,0,0,1-.85.41c-1,0-1.9,0-2.87,0h-1.52a2.32,2.32,0,0,0-.59.05,1.69,1.69,0,0,0-1.18,1.76,1.61,1.61,0,0,0,1.62,1.47h46.36c.88,0,1.75,0,2.62,0a1.58,1.58,0,0,0,1.64-1.68,1.61,1.61,0,0,0-1.68-1.6H173c-1,0-2.07,0-3.11,0a1.34,1.34,0,0,1-.89-.45,7.59,7.59,0,0,1-.59-.78l-.3-.43-2.08-2.79c-1.64-2.2-3.29-4.4-4.92-6.61a1.78,1.78,0,0,1-.34-1q0-9.91,0-19.82v-4.24l20.28,0h18.2a1.6,1.6,0,0,0,1.75-1.67c0-1.46,0-2.92,0-4.38v-2h4.06Zm-65.91,44.15h-4.36l4.36-5.87Zm21.63-5.86,4.4,5.87h-4.4Zm14.36-97.83c.08-.62.16-1.23.25-1.84,0-.31.09-.63.14-.94.07-.46.15-.92.2-1.38a.7.7,0,0,1,.74-.7h8.72a.84.84,0,0,1,.72.61c.21,1.35.4,2.7.59,4l.11.77a1.6,1.6,0,0,1,0,.22l0,.32-.33.08H175Zm-30.82-.2c.1-.77.2-1.53.31-2.29,0-.23.07-.46.1-.69s.11-.67.15-1a.67.67,0,0,1,.76-.66h8.67a.79.79,0,0,1,.72.56c.22,1.41.42,2.82.63,4.28l.17,1.2h-11.7ZM113.8,98.13c.08-.57.16-1.14.23-1.71a.7.7,0,0,1,.77-.7h8.68a.81.81,0,0,1,.73.54q.33,2.24.63,4.47l.08.6-.14.38-.26,0H113.3Zm43.64,106.12H142.56V168.2h14.88Zm40.25-39.41H102.32v-4.71h95.37ZM96.41,156.79v-57h13.78L110,101c-.08.62-.16,1.24-.26,1.86a2,2,0,0,0,.32,1.67,2,2,0,0,0,1.55.57h15a1.66,1.66,0,0,0,1.87-2.08c-.08-.66-.17-1.31-.27-2l-.19-1.29h13l-.16,1.23c-.08.61-.16,1.2-.26,1.8a2.07,2.07,0,0,0,.31,1.74,2,2,0,0,0,1.62.58h15a1.64,1.64,0,0,0,1.8-2c-.07-.67-.17-1.33-.26-2L159,99.76h13l-.43,3a2.12,2.12,0,0,0,.22,1.63,1.8,1.8,0,0,0,1.67.72h14.17c.34,0,.67,0,1,0a1.75,1.75,0,0,0,1.34-.55,1.8,1.8,0,0,0,.37-1.42c0-.33-.09-.66-.13-1l-.34-2.38h13.78v57Z" style="fill: #d9b850"/>
      <path d="M160.25,136.06a13.58,13.58,0,0,0-5.77-9.61c-.84-.73-1.73-1.41-2.6-2.07-2.42-1.83-4.69-3.55-5.78-6.26-.76-1.53-.68-3.61.18-4.53a2,2,0,0,1,2.34-.22c2.07,1.14,2.08,2,2.11,3.51a11.5,11.5,0,0,0,.25,2.41l.16.39a1.76,1.76,0,0,0,2.19,1.2l.2-.1a2.74,2.74,0,0,0,.95-1v0l.06-.17a2.15,2.15,0,0,0,.17-.72l0,0,0-.15a6.87,6.87,0,0,0-1-2.69l-.83-1.81-.06.09-.28-.52A5.84,5.84,0,0,0,149,111a4.93,4.93,0,0,0-4.56.83A8.17,8.17,0,0,0,143.6,122a15.81,15.81,0,0,0,3.84,3.94l.18.15c.82.71,1.68,1.38,2.43,2a35.21,35.21,0,0,1,4.88,4.38,9.1,9.1,0,0,1,.6,10,7.17,7.17,0,0,1-7.36,3.77,11.66,11.66,0,0,1-7.89-5.13,7.07,7.07,0,0,1,1.11-9.49c2.27-1.83,5.05-1.41,7.43,1.14a5.84,5.84,0,0,1,1.06,4l-.08.55-.75-.44a2.23,2.23,0,0,0-2.66,1.5,2.15,2.15,0,0,0,1,2.81l.21.07a4.22,4.22,0,0,0,3.58-1,5.1,5.1,0,0,0,1.86-3.86,6.09,6.09,0,0,0-.49-3.12,8.76,8.76,0,0,0-5.73-5.23,7.11,7.11,0,0,0-1.78-.22,8.08,8.08,0,0,0-7.45,5.08c-2.4,5.53.57,10.72,4.58,13.41a12.88,12.88,0,0,0,7.08,2.24,10,10,0,0,0,7.3-3.11A12.13,12.13,0,0,0,160.25,136.06Z" style="fill: #d9b850"/>
      <path d="M149.28,148.64a12.88,12.88,0,0,1-7.08-2.24c-4-2.69-7-7.88-4.58-13.41a8.08,8.08,0,0,1,7.45-5.08,7.11,7.11,0,0,1,1.78.22,8.76,8.76,0,0,1,5.73,5.23,6.09,6.09,0,0,1,.49,3.12,5.1,5.1,0,0,1-1.86,3.86,4.22,4.22,0,0,1-3.58,1l-.21-.07a2.15,2.15,0,0,1-1-2.81,2.23,2.23,0,0,1,2.66-1.5l.75.44.08-.55a5.84,5.84,0,0,0-1.06-4c-2.38-2.55-5.16-3-7.43-1.14a7.07,7.07,0,0,0-1.11,9.49,11.66,11.66,0,0,0,7.89,5.13,7.17,7.17,0,0,0,7.36-3.77,9.1,9.1,0,0,0-.6-10,35.21,35.21,0,0,0-4.88-4.38c-.75-.6-1.61-1.27-2.43-2l-.18-.15A15.81,15.81,0,0,1,143.6,122a8.17,8.17,0,0,1,.84-10.18A4.93,4.93,0,0,1,149,111a5.84,5.84,0,0,1,3.59,2.68l.28.52.06-.09.83,1.81a6.87,6.87,0,0,1,1,2.69l0,.15,0,0a2.15,2.15,0,0,1-.17.72l-.06.17v0a2.74,2.74,0,0,1-.95,1l-.2.1a1.76,1.76,0,0,1-2.19-1.2l-.16-.39a11.5,11.5,0,0,1-.25-2.41c0-1.53,0-2.37-2.11-3.51a2,2,0,0,0-2.34.22c-.86.92-.94,3-.18,4.53,1.09,2.71,3.36,4.43,5.78,6.26.87.66,1.76,1.34,2.6,2.07a13.58,13.58,0,0,1,5.77,9.61,12.13,12.13,0,0,1-3.67,9.47A10,10,0,0,1,149.28,148.64Z" style="fill: #d9b850"/>
    </g>
  </g>
  <g id="Layer_4" data-name="Layer 4">
    <circle cx="217.9" cy="217.9" r="62.1" style="fill: #fff"/>
  </g>
  <g id="Layer_2" data-name="Layer 2">
    <circle cx="217.9" cy="217.9" r="51.1" style="fill: url(#linear-gradient)"/>
  </g>
  <g id="Layer_5" data-name="Layer 5">
    <text transform="translate(190.27 250.75)" style="font-size: 97.89593505859375px;fill: #fff;font-family: Roboto-Regular, Roboto">+</text>
  </g>
</svg>
