<svg xmlns="http://www.w3.org/2000/svg" xmlns:xlink="http://www.w3.org/1999/xlink" viewBox="0 0 300 300">
  <defs>
    <linearGradient id="linear-gradient" x1="235.36" y1="123.27" x2="207.74" y2="272.93" gradientUnits="userSpaceOnUse">
      <stop offset="0.16" stop-color="#d9b850"/>
      <stop offset="1" stop-color="#a38a3d"/>
    </linearGradient>
  </defs>
  <g id="Layer_3" data-name="Layer 3">
    <circle cx="150" cy="150" r="124.79" style="fill: #fafafa"/>
  </g>
  <g id="Layer_1_copy" data-name="Layer 1 copy">
    <g>
      <path d="M177.65,121.38h3.68q0-9.63,0-19.25V98.94a1.85,1.85,0,0,0-2.06-2.1l-13.47,0h-.53c-.1-.61-.2-1.21-.29-1.81a1.83,1.83,0,0,0-2.05-1.83H151.49a1.83,1.83,0,0,0-1.94,1.72c-.07.63-.16,1.27-.25,1.91H137.16c-.09-.61-.19-1.2-.27-1.79a1.83,1.83,0,0,0-2-1.84H123.53a1.85,1.85,0,0,0-2.1,1.89c-.07.57-.17,1.14-.27,1.74h-12.1c-.1-.65-.24-1.29-.3-1.93a1.9,1.9,0,0,0-1.94-1.71c-3.82,0-7.64,0-11.45,0a1.82,1.82,0,0,0-2,1.77c-.08.61-.18,1.21-.28,1.87h-.58c-4.44,0-8.89,0-13.33,0a3,3,0,0,0-1.33.29A1.67,1.67,0,0,0,77,98.66c0,.76,0,1.52,0,2.29v52.49a1.8,1.8,0,0,0,2,2h3.38V156c0,1.66,0,3.32,0,5a1.78,1.78,0,0,0,1.92,1.84c.76,0,1.53,0,2.29,0l.08,0c.88-.57,1.72-1.11,2.45-1.65.33-.66.65-1.33,1-2h-4v-3.63h5.76c.58-1.22,1.18-2.46,1.79-3.7H80.69V100.52H92.54c-.07.49-.13.93-.19,1.37s-.13.89-.18,1.34A1.81,1.81,0,0,0,94,105.39c.45,0,.9,0,1.35,0h12.48a2,2,0,0,0,1.8-.8,2.2,2.2,0,0,0,.25-1.73c-.11-.77-.22-1.55-.33-2.36h11.06c-.13.92-.27,1.8-.36,2.69a1.82,1.82,0,0,0,2,2.19c4.56,0,9.13,0,13.69,0A1.9,1.9,0,0,0,138,102.9c-.13-.78-.22-1.57-.33-2.38h11.06c-.13.9-.27,1.75-.36,2.61a1.83,1.83,0,0,0,2,2.26h13.7a1.87,1.87,0,0,0,2-2.42c-.13-.81-.22-1.62-.33-2.45h11.85ZM106,101.69H96.13a.62.62,0,0,1,0-.19q.3-2.19.63-4.38a.48.48,0,0,1,.34-.28H105c.26,0,.32.11.35.34.09.71.21,1.42.31,2.12S105.9,100.88,106,101.69Zm28.1,0H124.2c.23-1.58.44-3.1.68-4.62,0-.09.21-.23.33-.23h7.9c.24,0,.34.07.37.32.06.52.15,1,.23,1.55C133.84,99.69,134,100.67,134.11,101.69Zm28.11,0h-9.85a1,1,0,0,1,0-.11c.21-1.51.41-3,.64-4.52a.44.44,0,0,1,.34-.22h7.9c.27,0,.35.09.38.35.09.78.22,1.57.33,2.35S162.12,101,162.22,101.69Z" style="fill: #d9b850"/>
      <g>
        <path d="M194.09,196.44a13.07,13.07,0,0,1-12.55,10.39c-6.23.11-11.18-3.73-13-10.14-.24-.86-.68-.92-1.38-.92q-19.82,0-39.64,0c-1,0-1.3.28-1.55,1.23a13.09,13.09,0,0,1-25.41-.18c-.09-.34-.24-.67-.37-1-2.8,0-5.52,0-8.24,0a7.58,7.58,0,0,1-7.67-7.51c-.08-3.74-.12-7.49,0-11.22A12.18,12.18,0,0,1,90,166.7c1.28-.83,2.58-1.64,3.78-2.56a5.51,5.51,0,0,0,1.57-1.83c1.93-3.88,3.7-7.85,5.67-11.71a14.45,14.45,0,0,1,13.33-8.39c4.57-.11,9.14,0,13.72,0,.49,0,1,0,1.56-.06,0-2.64,0-5.13,0-7.62,0-5.33,3.08-8.41,8.43-8.41H202a11,11,0,0,1,1.52,0,2,2,0,0,1,.3,4,6.42,6.42,0,0,1-1.64.14H138.54c-3.71,0-4.74,1-4.74,4.8v31.87h38.87c.42,0,.84,0,1.25,0a2.06,2.06,0,0,1-.07,4.12c-.41,0-.83,0-1.24,0l-37.14,0H133.8v1.73c0,2.31,0,4.62,0,6.93a2.08,2.08,0,1,1-4.14,0c0-.41,0-.83,0-1.24q0-15.26,0-30.49v-1.71h-1.7c-4.43,0-8.87,0-13.3,0a10.52,10.52,0,0,0-10,6.27c-1.8,3.64-3.58,7.3-5.24,11a8.58,8.58,0,0,1-3.7,4.29,42.68,42.68,0,0,0-4,2.68,7.45,7.45,0,0,0-3,4.78c.94,0,1.71,0,2.49,0,1.5,0,2.41.85,2.4,2.1s-.93,2-2.46,2c-.86,0-1.73,0-2.69,0,0,3.14-.1,6.13,0,9.11a3.1,3.1,0,0,0,2.9,2.91c2.94.1,5.89,0,8.84,0,.11-.35.21-.61.28-.88a13.08,13.08,0,0,1,25.43-.19c.28,1.07.81,1.11,1.65,1.11,13,0,26,0,38.94,0,1.22,0,1.81-.22,2.17-1.54a13,13,0,0,1,12.39-9.5,13.08,13.08,0,0,1,12.65,9.19c.18.57.34,1.15.54,1.82h8.45c2.55,0,3.95-1.41,3.95-3.94,0-3,0-6,0-9,0-.32,0-.64,0-1,0-1.43.8-2.29,2-2.31a2,2,0,0,1,2.11,2.24c0,3.37,0,6.75,0,10.12a7.64,7.64,0,0,1-8,8c-2.82,0-5.63,0-8.52,0A5.63,5.63,0,0,0,194.09,196.44Zm-80.7,6.24a9,9,0,1,0-9-8.92A9,9,0,0,0,113.39,202.68Zm67.84,0a9,9,0,1,0-8.9-8.91A8.93,8.93,0,0,0,181.23,202.68Z" style="fill: #d9b850"/>
        <path d="M108.81,171.08c1.52,0,3,0,4.56,0a7.42,7.42,0,0,0,7.46-6.63,41,41,0,0,0,0-7.59,7.46,7.46,0,0,0-6.86-6.52c-1.54-.13-2.62.61-2.73,1.88s.71,2,2.23,2.26a3.47,3.47,0,0,1,3.33,3.44,53.88,53.88,0,0,1,0,5.54,3.47,3.47,0,0,1-3.71,3.48c-3,0-6,0-9,0-1.63,0-2.59.75-2.63,2s.94,2.12,2.64,2.13Z" style="fill: #d9b850"/>
        <path d="M198,143.44c4.34,0,8.68,0,13,0a2.94,2.94,0,0,0,2-.69,2.18,2.18,0,0,0,.45-1.95,3.1,3.1,0,0,0-1.94-1.42,22.21,22.21,0,0,0-4-.08H185.61c-.37,0-.74,0-1.11,0a2.14,2.14,0,0,0-2.12,2.12,2.06,2.06,0,0,0,2.18,2c1.94,0,3.88,0,5.82,0Z" style="fill: #d9b850"/>
        <path d="M211,171.08H221c1.6,0,2.54-.81,2.51-2.1s-.94-2-2.46-2H200.85c-1.62,0-2.52.79-2.49,2.11s.89,2,2.44,2C204.21,171.09,207.62,171.08,211,171.08Z" style="fill: #d9b850"/>
        <path d="M205.29,158.07c2.54,0,5.08,0,7.62,0,1.72,0,2.69-.78,2.66-2.11s-1-2-2.6-2H197.45c-1.62,0-2.57.78-2.6,2.05s.93,2.09,2.54,2.1C200,158.08,202.65,158.07,205.29,158.07Z" style="fill: #d9b850"/>
        <path d="M225.37,143.41c.78,0,1.57.05,2.35,0a1.89,1.89,0,0,0,1.9-2,1.86,1.86,0,0,0-1.79-2.08,41.48,41.48,0,0,0-5.11,0,2,2,0,0,0-1.84,2.2,1.94,1.94,0,0,0,2,1.89c.83,0,1.66,0,2.49,0Z" style="fill: #d9b850"/>
        <path d="M216.6,126.11c-.83,0-1.66,0-2.48,0a1.87,1.87,0,0,0-1.86,1.87,1.82,1.82,0,0,0,1.68,2.15,32.22,32.22,0,0,0,5.38,0A1.83,1.83,0,0,0,221,128a1.87,1.87,0,0,0-1.88-1.85C218.27,126.06,217.43,126.11,216.6,126.11Z" style="fill: #d9b850"/>
        <path d="M238.83,153.92c-.6,0-1.2,0-1.79,0A2,2,0,0,0,235,156a2,2,0,0,0,2,2c1.33,0,2.67.06,4,0a2,2,0,0,0,2-2,2.07,2.07,0,0,0-2-2.09c-.73-.06-1.47,0-2.21,0Z" style="fill: #d9b850"/>
        <path d="M225.61,158.06c.64,0,1.29.05,1.92,0a2,2,0,0,0,1.92-2.12,1.94,1.94,0,0,0-1.91-2,29.1,29.1,0,0,0-3.85,0,2,2,0,0,0-1.93,2.11,2,2,0,0,0,2.06,2c.59,0,1.19,0,1.79,0Z" style="fill: #d9b850"/>
        <path d="M187.41,167c-.46,0-.93,0-1.39,0a2.05,2.05,0,0,0-1.94,2.12,2,2,0,0,0,1.93,2,19.23,19.23,0,0,0,2.63,0,2,2,0,0,0,2.06-2,2,2,0,0,0-2-2.14c-.41,0-.83,0-1.24,0Z" style="fill: #d9b850"/>
        <path d="M113.29,197.18a3.41,3.41,0,0,0,3.45-3.39,3.48,3.48,0,0,0-3.47-3.54,3.54,3.54,0,0,0-3.47,3.42A3.47,3.47,0,0,0,113.29,197.18Z" style="fill: #d9b850"/>
        <path d="M181.24,197.18a3.46,3.46,0,0,0,3.51-3.49,3.52,3.52,0,0,0-3.45-3.44,3.45,3.45,0,0,0-3.48,3.51A3.39,3.39,0,0,0,181.24,197.18Z" style="fill: #d9b850"/>
      </g>
    </g>
  </g>
  <g id="Layer_4" data-name="Layer 4">
    <circle cx="217.9" cy="217.9" r="62.1" style="fill: #fff"/>
  </g>
  <g id="Layer_2" data-name="Layer 2">
    <circle cx="217.9" cy="217.9" r="51.1" style="fill: url(#linear-gradient)"/>
  </g>
  <g id="Layer_5" data-name="Layer 5">
    <text transform="translate(190.27 250.75)" style="font-size: 97.89593505859375px;fill: #fff;font-family: Roboto-Regular, Roboto">+</text>
  </g>
</svg>
