<svg id="Layer_1" data-name="Layer 1" xmlns="http://www.w3.org/2000/svg" viewBox="0 0 300 300">
  <path d="M241.82,250.36l-.28-2.46A89.76,89.76,0,0,0,240,237.44c-7-30.23-24.83-52.17-53-65.2-2.09-1-4.21-1.78-6.46-2.63-1-.4-2.1-.8-3.15-1.22l-2.67-1.07,2.57-1.27c32.91-16.23,41.63-51.84,33.13-77.11-8.79-26.13-33.09-44-59.49-44l-1.72,0C120.79,45.78,96,64.8,88.78,91.19c-8.19,30.11,5.84,60.89,34.09,74.86l2.64,1.3-3.77,1.43c-.61.24-1.14.44-1.68.63a92.07,92.07,0,0,0-61.89,81A4.16,4.16,0,0,0,61.4,255c2.29.38,4.08-1,4.65-3.48a17,17,0,0,0,.38-2.31,81.43,81.43,0,0,1,19.81-47.33C100.84,185,119.5,175.21,141.73,173a80.67,80.67,0,0,1,45.92,8.55c20.64,10.65,34.64,26.83,41.62,48.1a103.1,103.1,0,0,1,3.3,15c.39,2.27.77,4.55,1.22,6.8.52,2.55,2.24,3.92,4.59,3.63a3.88,3.88,0,0,0,2.58-1.52A4.33,4.33,0,0,0,241.82,250.36Zm-92-86.52a55.46,55.46,0,0,1-55.28-55.47,55.52,55.52,0,0,1,55.21-55.31h.13a55.39,55.39,0,0,1,0,110.78Z" style="fill: #d9b850"/>
</svg>
