<svg xmlns="http://www.w3.org/2000/svg" xmlns:xlink="http://www.w3.org/1999/xlink" viewBox="0 0 300 300">
  <defs>
    <linearGradient id="linear-gradient" x1="235.36" y1="123.27" x2="207.74" y2="272.93" gradientUnits="userSpaceOnUse">
      <stop offset="0.16" stop-color="#d9b850"/>
      <stop offset="1" stop-color="#a38a3d"/>
    </linearGradient>
  </defs>
  <g id="Layer_3" data-name="Layer 3">
    <circle cx="150" cy="150" r="124.79" style="fill: #fafafa"/>
  </g>
  <g id="Layer_1_copy" data-name="Layer 1 copy">
    <g>
      <g>
        <path d="M123.48,130.63a3.74,3.74,0,0,1,.33-2,5.88,5.88,0,0,1,3.81-3.5,5.29,5.29,0,0,1,5.44,2l-.59.28c-1.58-1.87-4.34-2.45-6.84.27a4.48,4.48,0,0,0-.68,4,.32.32,0,0,0,.06.17,1.72,1.72,0,0,0,1-.35,1.06,1.06,0,0,1,1.18.46,13.67,13.67,0,0,0-1,1.74A3.12,3.12,0,0,1,123.48,130.63Z" style="fill: #d9b850"/>
        <path d="M122.3,123.74c2.15-1.9,5.07-3.4,6.2-6.2,1-2,.33-5.39-2.57-4.16-2.46,1.35-1.49,2.53-1.94,4.58l0,.07v0l0,0c-.25.65-.65.82-1,.7a1.63,1.63,0,0,1-.55-.57,1.65,1.65,0,0,1-.12-.52,6.19,6.19,0,0,1,.87-2.2l0,0h0c.2-.35.39-.71.57-1.07a3.7,3.7,0,0,1,2.38-1.8,3,3,0,0,1,2.76.48,5.51,5.51,0,0,1,.54,6.79,12.11,12.11,0,0,1-2.82,2.85,47.76,47.76,0,0,0-5.41,4.72c-3,3.8-1,10,3.54,10.81,0,.22-.07.43-.1.65a6.7,6.7,0,0,1-3.83-2C116.69,132.61,117.73,127.17,122.3,123.74Z" style="fill: #d9b850"/>
        <path d="M74.91,110.32v1.4c.61.65,1.19,1.33,1.82,2q6,6,12,12c1.4,1.4,2.35,1.4,3.74,0,1.74-1.74,3.46-3.49,5.35-5.38v31.76a22.93,22.93,0,0,1,3-3.87v-18.7q0-13.56,0-27.14a5.65,5.65,0,0,0,0-1.09A1.41,1.41,0,0,0,99.32,100a1.38,1.38,0,0,0-1.4,1.4,7.18,7.18,0,0,0,0,.8c0,3.94-.06,7.87,0,11.81a4,4,0,0,1-1.42,3.44c-2,1.85-3.92,3.88-5.77,5.74l-12.31-12.3c.08-.09.21-.24.35-.38q7.68-7.68,15.36-15.34a20,20,0,0,1,1.95-1.72,19.7,19.7,0,0,1,11.11-4.12c1.94,10.3,7.75,16.89,18.41,17.12,11.2.24,17.36-6.39,19.47-17.13a20,20,0,0,1,13.15,6l15.14,15.14c.18.18.34.38.44.49l-12.29,12.29c-2.09-2.1-4.21-4.27-6.39-6.37a2.32,2.32,0,0,1-.8-1.89c0-4.4,0-8.8,0-13.2,0-1.1-.58-1.76-1.48-1.76s-1.48.67-1.52,1.74c0,.27,0,.54,0,.8v23.14h3.06v-5.23c.27.23.5.39.69.59,1.55,1.55,3.09,3.1,4.65,4.64h3.75q6.5-6.47,13-13c1.21-1.21,1.21-2.23,0-3.44q-8.09-8.11-16.2-16.2a22.71,22.71,0,0,0-16.56-6.78H108.59A22.67,22.67,0,0,0,92,93.09c-5.43,5.37-10.81,10.79-16.21,16.19C75.49,109.61,75.21,110,74.91,110.32Zm35.56-20.95h1.87c0,.2.11.35.14.51a13.75,13.75,0,0,0,15.41,11.62,13.18,13.18,0,0,0,7.43-3.38,1.41,1.41,0,0,0,.34-2,1.39,1.39,0,0,0-1.74-.6,3.56,3.56,0,0,0-1,.67A10.82,10.82,0,0,1,116.19,92a24.41,24.41,0,0,1-.8-2.66h21.42c-.08.44-.15.8-.22,1.15-.22,1.08.16,1.82,1,2.06s1.6-.29,1.88-1.34a2.31,2.31,0,0,0,.15-.68c-.08-1.26.69-1.37,1.64-1.25l.48.06a15.73,15.73,0,0,1-31.32,0Z" style="fill: #d9b850"/>
      </g>
      <g>
        <path d="M196.17,203.3a13.09,13.09,0,0,1-12.55,10.39c-6.23.1-11.18-3.73-13-10.15-.25-.86-.68-.92-1.39-.92q-19.82,0-39.63,0c-1,0-1.31.28-1.55,1.23a13.1,13.1,0,0,1-25.42-.18c-.09-.35-.23-.67-.36-1-2.8,0-5.52,0-8.25,0a7.58,7.58,0,0,1-7.66-7.51c-.08-3.74-.12-7.49,0-11.22a12.18,12.18,0,0,1,5.73-10.35c1.28-.83,2.57-1.64,3.78-2.57a5.6,5.6,0,0,0,1.57-1.82c1.93-3.89,3.7-7.85,5.67-11.71a14.48,14.48,0,0,1,13.32-8.4c4.58-.11,9.15,0,13.72,0,.49,0,1,0,1.56-.07v-7.61c0-5.34,3.09-8.41,8.44-8.41H204a11,11,0,0,1,1.52.05,2,2,0,0,1,.3,3.95,6,6,0,0,1-1.64.15H140.61c-3.7,0-4.74,1-4.74,4.8q0,15.1,0,30.21v1.66h38.87c.42,0,.83,0,1.25,0a2.07,2.07,0,0,1-.07,4.13c-.41,0-.83,0-1.25,0H135.87v1.74c0,2.31,0,4.62,0,6.93a2.08,2.08,0,1,1-4.13.05c0-.41,0-.83,0-1.25V153.2H130c-4.44,0-8.87,0-13.31,0a10.54,10.54,0,0,0-9.95,6.28c-1.8,3.64-3.58,7.29-5.24,11a8.67,8.67,0,0,1-3.7,4.29,41.43,41.43,0,0,0-4,2.68,7.5,7.5,0,0,0-3,4.78c.94,0,1.72,0,2.5,0,1.5,0,2.41.85,2.39,2.09s-.93,2-2.45,2.06c-.87,0-1.73,0-2.7,0,0,3.15-.1,6.14,0,9.12a3.09,3.09,0,0,0,2.9,2.9c3,.1,5.9,0,8.84,0,.12-.35.22-.6.29-.87a13.08,13.08,0,0,1,25.43-.19c.27,1.07.8,1.11,1.64,1.11q19.47,0,38.94,0c1.23,0,1.82-.22,2.18-1.54a13,13,0,0,1,12.39-9.5,13.12,13.12,0,0,1,12.65,9.2c.18.57.34,1.14.53,1.82,2.83,0,5.65,0,8.46,0,2.55,0,3.94-1.4,3.95-3.93,0-3,0-6,0-9,0-.32,0-.65,0-1,.05-1.43.81-2.29,2-2.31a2.05,2.05,0,0,1,2.11,2.24c0,3.37,0,6.74,0,10.11a7.64,7.64,0,0,1-8,8c-2.81,0-5.63,0-8.51,0A4.67,4.67,0,0,0,196.17,203.3Zm-80.71,6.23a8.95,8.95,0,1,0-9-8.91A8.94,8.94,0,0,0,115.46,209.53Zm67.85,0a8.95,8.95,0,1,0-8.91-8.9A8.93,8.93,0,0,0,183.31,209.53Z" style="fill: #d9b850"/>
        <path d="M110.88,177.93c1.52,0,3.05,0,4.57,0a7.41,7.41,0,0,0,7.45-6.63,40.2,40.2,0,0,0,0-7.6,7.46,7.46,0,0,0-6.87-6.51c-1.54-.13-2.61.61-2.73,1.88s.71,2.05,2.24,2.26a3.47,3.47,0,0,1,3.33,3.44c.09,1.84.1,3.69,0,5.53a3.47,3.47,0,0,1-3.71,3.48c-3,0-6,0-9,0-1.63,0-2.58.74-2.63,2s.94,2.12,2.64,2.13Z" style="fill: #d9b850"/>
        <path d="M200.07,150.29c4.34,0,8.68,0,13,0a2.92,2.92,0,0,0,2-.68,2.14,2.14,0,0,0,.44-2,3.11,3.11,0,0,0-1.93-1.43,23.29,23.29,0,0,0-4-.07H187.69c-.37,0-.74,0-1.11,0a2.13,2.13,0,0,0-2.12,2.12,2.06,2.06,0,0,0,2.18,2c1.94,0,3.88,0,5.81,0Z" style="fill: #d9b850"/>
        <path d="M213.11,177.93h9.95c1.6,0,2.54-.81,2.51-2.11s-.95-2-2.46-2q-10.1,0-20.19,0c-1.61,0-2.51.79-2.49,2.11s.9,2,2.44,2Z" style="fill: #d9b850"/>
        <path d="M207.36,164.93H215c1.72,0,2.68-.78,2.66-2.11s-1-2-2.6-2H199.53c-1.62,0-2.58.77-2.6,2.05s.93,2.09,2.53,2.1Z" style="fill: #d9b850"/>
        <path d="M227.45,150.27c.78,0,1.57,0,2.35,0a1.89,1.89,0,0,0,1.9-2,1.86,1.86,0,0,0-1.79-2.08,37.89,37.89,0,0,0-5.11,0,2,2,0,0,0-1.84,2.19,1.94,1.94,0,0,0,2,1.9c.82,0,1.66,0,2.49,0Z" style="fill: #d9b850"/>
        <path d="M218.68,133c-.83,0-1.66-.06-2.49,0a1.87,1.87,0,0,0-1.85,1.88A1.82,1.82,0,0,0,216,137a33.2,33.2,0,0,0,5.37,0,1.82,1.82,0,0,0,1.65-2.18,1.86,1.86,0,0,0-1.87-1.85C220.34,132.92,219.51,133,218.68,133Z" style="fill: #d9b850"/>
        <path d="M240.91,160.78c-.6,0-1.2,0-1.8,0A2,2,0,0,0,237,162.9a2,2,0,0,0,2,2c1.34.05,2.67.05,4,0a2,2,0,0,0,2-2,2.07,2.07,0,0,0-2-2.09c-.73-.06-1.47,0-2.2,0Z" style="fill: #d9b850"/>
        <path d="M227.68,164.92c.65,0,1.29.05,1.93,0a2,2,0,0,0,1.92-2.12,1.93,1.93,0,0,0-1.91-2,31.07,31.07,0,0,0-3.86,0,2,2,0,0,0-1.93,2.12,2.06,2.06,0,0,0,2.06,2c.6,0,1.2,0,1.79,0Z" style="fill: #d9b850"/>
        <path d="M189.48,173.8c-.46,0-.92,0-1.38,0a2,2,0,0,0-1.94,2.12,2,2,0,0,0,1.93,2,20.82,20.82,0,0,0,2.62,0,2,2,0,0,0,2.06-2,2,2,0,0,0-2-2.14c-.42,0-.83,0-1.25,0Z" style="fill: #d9b850"/>
        <path d="M115.37,204a3.39,3.39,0,0,0,3.44-3.39,3.48,3.48,0,0,0-3.46-3.55,3.55,3.55,0,0,0-3.48,3.43A3.47,3.47,0,0,0,115.37,204Z" style="fill: #d9b850"/>
        <path d="M183.31,204a3.47,3.47,0,0,0,3.52-3.49,3.54,3.54,0,0,0-3.45-3.45,3.47,3.47,0,0,0-3.49,3.52A3.41,3.41,0,0,0,183.31,204Z" style="fill: #d9b850"/>
      </g>
    </g>
  </g>
  <g id="Layer_4" data-name="Layer 4">
    <circle cx="217.9" cy="217.9" r="62.1" style="fill: #fff"/>
  </g>
  <g id="Layer_2" data-name="Layer 2">
    <circle cx="217.9" cy="217.9" r="51.1" style="fill: url(#linear-gradient)"/>
  </g>
  <g id="Layer_5" data-name="Layer 5">
    <text transform="translate(190.27 250.75)" style="font-size: 97.89593505859375px;fill: #fff;font-family: Roboto-Regular, Roboto">+</text>
  </g>
</svg>
