<svg xmlns="http://www.w3.org/2000/svg" xmlns:xlink="http://www.w3.org/1999/xlink" viewBox="0 0 300 300">
  <defs>
    <linearGradient id="linear-gradient" x1="235.36" y1="123.27" x2="207.74" y2="272.93" gradientUnits="userSpaceOnUse">
      <stop offset="0.16" stop-color="#d9b850"/>
      <stop offset="1" stop-color="#a38a3d"/>
    </linearGradient>
  </defs>
  <g id="Layer_3" data-name="Layer 3">
    <circle cx="150" cy="150" r="124.79" style="fill: #fafafa"/>
  </g>
  <g id="Layer_1_copy" data-name="Layer 1 copy">
    <g>
      <path d="M152.25,188.35a4.77,4.77,0,0,0-1.93-.32H138.88c-3.89,0-7.91,0-11.86,0a12.75,12.75,0,0,1-2.89-.36,2.58,2.58,0,0,1-2.13-2.91c.06-5,0-10.12,0-15v-4.45c0-2.32-.74-3.07-3-3.07H100.2c-2.85,0-3.68-.73-4-3.59a15.68,15.68,0,0,1-.08-1.8V104.28c0-5.3,0-10.78,0-16.18V88a2,2,0,0,1,.4-1.49,1.78,1.78,0,0,1,1.32-.43c6.09,0,12.27,0,18.26-.09l17-.09c2.07,0,4.17,0,6.2.1,1.75,0,3.57.09,5.35.09,6,0,12.13,0,18,0h9.46V149.6l-1-1-.64-.6-.79-.76-3.11-3.12c-2.12-2.14-4.32-4.35-6.52-6.49a11.55,11.55,0,0,0-8.06-3.34,11.15,11.15,0,0,0-7.53,2.93,11.3,11.3,0,0,0-1.31,15.55c1.2,1.57,2.43,3.16,3.63,4.7,2.32,3,4.73,6.12,7,9.21a5.63,5.63,0,0,1,1,3c.07,1.82.06,3.66.05,5.44,0,1.16,0,2.37,0,3.56a19.17,19.17,0,0,0,7.71,15.53,18.72,18.72,0,0,0,11.37,3.95,2.23,2.23,0,0,0,2.55-2.08c.06-1.33-.82-2.18-2.35-2.29l-.31,0-.4,0a15,15,0,0,1-14.14-15.33v-2.1c0-2.63,0-5.34,0-8a4.81,4.81,0,0,0-1.1-3.23c-4.08-5.19-7.75-9.88-11.31-14.68a9.61,9.61,0,0,1-1.77-4.33,6.59,6.59,0,0,1,4.14-6.76,7,7,0,0,1,7.87,1.68q5,4.94,9.9,9.88c3.62,3.62,7.36,7.37,11,11a2.71,2.71,0,0,0,1.92.92,2.13,2.13,0,0,0,1.52-.77c.89-1,.71-2.26-.45-3.38l-.78-.75a29.51,29.51,0,0,1-2.69-2.78,5.24,5.24,0,0,1-1.17-2.93c0-2.36,0-4.76,0-7.08,0-1.45,0-2.94,0-4.41,0-16,0-32.18,0-47.86V84.75c0-2.42-.67-3.08-3.13-3.08H95c-2.66,0-3.31.66-3.31,3.36q0,13,0,26.06V149c0,.93,0,1.88.07,2.81,0,1.52.11,3.09,0,4.65a12,12,0,0,0,3.77,9.86c6.87,6.76,13.78,13.7,20.46,20.42l2.18,2.19a11.22,11.22,0,0,0,8.3,3.53h.06c5.38,0,10.84,0,16.13,0h7.71a9.32,9.32,0,0,0,1.2-.05,2,2,0,0,0,1.8-1.8A1.87,1.87,0,0,0,152.25,188.35Zm-34.74-7.08L103,166.7h14.47Z" style="fill: #d9b850"/>
      <path d="M208.25,207.63c0-1.53-.85-2.29-2.49-2.31-.91,0-1.85,0-2.76,0h-1.33c-2.48,0-2.74-.19-3.49-2.55-.12-.39-.27-.79-.43-1.21a8.5,8.5,0,0,1-.81-3.72c.51-5.56,1.12-11.21,1.7-16.66.57-5.29,1.15-10.75,1.65-16.12.13-1.34.29-2.7.45-4a53.56,53.56,0,0,0,.57-10.91,24.36,24.36,0,0,0-6.2-14.73c-2.56-2.85-5.23-5.71-7.8-8.47L185,124.48a3.17,3.17,0,0,0-1.84-1.08,2,2,0,0,0-1.61.57c-1,.94-.92,2.25.22,3.5.9,1,1.82,2,2.72,2.93,1.52,1.64,3.1,3.32,4.6,5l.18.2a58.78,58.78,0,0,1,5.1,6.41,17.94,17.94,0,0,1,2.82,10.74c-.1,2.17-.39,4.36-.67,6.47-.16,1.17-.32,2.37-.44,3.56-.38,3.51-.75,7.08-1.1,10.54-.7,6.74-1.42,13.71-2.2,20.56-.38,3.36-.58,6.37.83,9.26a2.91,2.91,0,0,1,.24.9c0,.16.06.32.1.51l.16.72H160.63c-2.08,0-2.6.52-2.62,2.62,0,1.33,0,2.68,0,4l0,3.85c0,.91.24,2.46,2,2.55a1.91,1.91,0,0,0,1.43-.47,2.85,2.85,0,0,0,.78-2l0-.72c0-1.08.09-2.19,0-3.27a1.76,1.76,0,0,1,2-2.15h0c9.12,0,18.4,0,27.37,0h9.95c.35,0,.69,0,1.07.05l.61,0,.56,0v.56c0,.61,0,1.2,0,1.78,0,1.31,0,2.54,0,3.79a2.16,2.16,0,0,0,2.15,2.34h0a2.2,2.2,0,0,0,2.2-2.29C208.32,213.2,208.31,210.38,208.25,207.63Z" style="fill: #d9b850"/>
      <path d="M112.55,110.45h-.73a8.51,8.51,0,0,0-.88,0,2.12,2.12,0,0,0-1.93,2.27c.06,1.33,1,2.09,2.7,2.09H157a2.48,2.48,0,0,0,1.77-.67,2.17,2.17,0,0,0,.6-1.59,2.21,2.21,0,0,0-2.39-2.12H112.55Z" style="fill: #d9b850"/>
      <path d="M109.07,124.72c.27,1.09,1.14,1.62,2.66,1.63H156.6a4.53,4.53,0,0,0,1.21-.13,2.15,2.15,0,0,0,1.25-3.18,2.41,2.41,0,0,0-2.35-1.09h0c-5.9,0-11.9,0-17.7,0H116.93l-5.52,0a2.48,2.48,0,0,0-2,.86A2.19,2.19,0,0,0,109.07,124.72Z" style="fill: #d9b850"/>
      <path d="M120.56,101.64a2.13,2.13,0,0,0,2.29,1.69c2.67,0,5.39,0,8,0h6.27c2.66,0,5.41,0,8.11-.06a2.88,2.88,0,0,0,2-.87,2.19,2.19,0,0,0,.38-2.3,2.69,2.69,0,0,0-2.47-1.19h0c-4.77,0-9.61,0-14.3,0-2.56,0-5.2,0-7.81,0a3.23,3.23,0,0,0-1.25.21A2.11,2.11,0,0,0,120.56,101.64Z" style="fill: #d9b850"/>
    </g>
  </g>
  <g id="Layer_4" data-name="Layer 4">
    <circle cx="217.9" cy="217.9" r="62.1" style="fill: #fff"/>
  </g>
  <g id="Layer_2" data-name="Layer 2">
    <circle cx="217.9" cy="217.9" r="51.1" style="fill: url(#linear-gradient)"/>
  </g>
  <g id="Layer_5" data-name="Layer 5">
    <text transform="translate(190.27 250.75)" style="font-size: 97.89593505859375px;fill: #fff;font-family: Roboto-Regular, Roboto">+</text>
  </g>
</svg>
