<svg xmlns="http://www.w3.org/2000/svg" xmlns:xlink="http://www.w3.org/1999/xlink" viewBox="0 0 300 300">
  <defs>
    <linearGradient id="linear-gradient" x1="235.36" y1="123.27" x2="207.74" y2="272.93" gradientUnits="userSpaceOnUse">
      <stop offset="0.16" stop-color="#d9b850"/>
      <stop offset="1" stop-color="#a38a3d"/>
    </linearGradient>
  </defs>
  <g id="Layer_3" data-name="Layer 3">
    <circle cx="162" cy="150" r="124.79" style="fill: #fafafa"/>
  </g>
  <g id="Layer_1_copy" data-name="Layer 1 copy">
    <g>
      <path d="M212.07,162.5h1.61a4.71,4.71,0,0,0-2.65-2.19v2.19h1Z" style="fill: none"/>
      <path d="M209.65,162.51h-1.29a4.56,4.56,0,0,0-.41,1.06A2.18,2.18,0,0,1,209.65,162.51Z" style="fill: none"/>
      <path d="M211,162.5h0Z" style="fill: none"/>
      <path d="M209.63,166.61a1.88,1.88,0,0,1-1.66-1,4.57,4.57,0,0,0,3,3.26h0v-2.18C210.56,166.66,210.1,166.65,209.63,166.61Z" style="fill: none"/>
      <path d="M247.32,139a4.89,4.89,0,0,0,1.58,1.68l.09-.06V139C248.43,139,247.88,139,247.32,139Z" style="fill: none"/>
      <path d="M240.29,143.65a9,9,0,0,1,2,1.08l.3-.21a8.41,8.41,0,0,1-1.82-1.25A5.45,5.45,0,0,1,240.29,143.65Z" style="fill: none"/>
      <path d="M238.67,125.78a4.86,4.86,0,0,0,1.57,1.68,4.86,4.86,0,0,0,1.57-1.68C240.76,125.83,239.71,125.83,238.67,125.78Z" style="fill: none"/>
      <path d="M249,133.24v1.57c.5,0,1,0,1.48.05A4.78,4.78,0,0,0,249,133.24Z" style="fill: none"/>
      <path d="M222.49,180.69h1.34V174c0-.3,0-.6,0-.91a9.07,9.07,0,0,1-5.68-2.28,8.54,8.54,0,0,1-3,1.8A19.79,19.79,0,0,1,222.49,180.69Z" style="fill: none"/>
      <path d="M262.44,149.48h0v-1.84a4.62,4.62,0,0,0-1.8,1.84h1.79Z" style="fill: none"/>
      <path d="M262.47,149.49h0Z" style="fill: none"/>
      <path d="M146.77,172.33v-3.16a14,14,0,0,1-2.52,1.93A19.56,19.56,0,0,1,146.77,172.33Z" style="fill: none"/>
      <path d="M264.54,149.49h0Z" style="fill: none"/>
      <path d="M240.23,121.67h1.58a5,5,0,0,0-1.57-1.68,5,5,0,0,0-1.57,1.68Z" style="fill: none"/>
      <path d="M176.24,151.66a8.88,8.88,0,0,0-7.65,4.32h15.25A8.92,8.92,0,0,0,176.24,151.66Z" style="fill: none"/>
      <path d="M123.74,173.14a9.16,9.16,0,0,1-.21,1.83,18.18,18.18,0,0,1,2.49-2,9.71,9.71,0,0,1-2.32-.66C123.72,172.6,123.74,172.86,123.74,173.14Z" style="fill: none"/>
      <path d="M134,156v-.09a8.71,8.71,0,0,1-1.78-.89l-.48,1Z" style="fill: none"/>
      <path d="M262.45,153.65v1.82l.16.08a4.56,4.56,0,0,0,1.95-1.94C263.86,153.64,263.15,153.65,262.45,153.65Z" style="fill: none"/>
      <path d="M251.17,149.51l.21,0a4.54,4.54,0,0,0-2.14-2.06h0v2C249.88,149.45,250.52,149.47,251.17,149.51Z" style="fill: none"/>
      <path d="M124.59,113.23h-1.7c-4.44,0-8.87,0-13.31,0a10.5,10.5,0,0,0-10,6.27c-1.8,3.64-3.58,7.3-5.24,11a8.67,8.67,0,0,1-3.7,4.29,39.78,39.78,0,0,0-4,2.69,7.45,7.45,0,0,0-3,4.78c.94,0,1.72,0,2.49,0,1.51,0,2.42.85,2.4,2.1s-.93,2-2.45,2c-.87,0-1.73,0-2.7,0,0,3.14-.1,6.13,0,9.11a3.1,3.1,0,0,0,2.9,2.91c3,.1,5.89,0,8.84,0,.12-.35.22-.61.29-.87a13.1,13.1,0,0,1,20.18-7.8c1-2.16,2.09-4.4,3.21-6.61a22.51,22.51,0,0,1,5.72-7.21V113.23Zm-8.82,18.09a7.41,7.41,0,0,1-7.45,6.63c-1.52,0-3,0-4.57,0H99c-1.7,0-2.69-.81-2.64-2.13s1-2,2.63-2c3,0,6,0,9,0a3.48,3.48,0,0,0,3.71-3.48c.09-1.84.08-3.7,0-5.54a3.48,3.48,0,0,0-3.33-3.44c-1.53-.21-2.35-1-2.24-2.26s1.19-2,2.73-1.88a7.44,7.44,0,0,1,6.86,6.52A41,41,0,0,1,115.77,131.32Z" style="fill: none"/>
      <path d="M119.33,180.68c0-.1.09-.19.14-.29a5.77,5.77,0,0,1-.55.29Z" style="fill: none"/>
      <path d="M247.8,153.63h-.69a4.87,4.87,0,0,0,2.12,2v-2H247.8Z" style="fill: none"/>
      <path d="M250.78,153.62h.59s0,0,0-.05l-.23,0Z" style="fill: none"/>
      <path d="M176.48,173.71a13.46,13.46,0,0,1-4.2-.58h-8.35c0,.75,0,1.5,0,2.25a9.16,9.16,0,0,1-1.73,5.31h7.58l17.52,0a19.25,19.25,0,0,1,6.47-7.59H180.11A13.07,13.07,0,0,1,176.48,173.71Z" style="fill: none"/>
      <path d="M99.3,160.64a8.92,8.92,0,0,0,2.93,6.59,17.78,17.78,0,0,1,2.7-5.55,3.27,3.27,0,0,1-.19-1.13,3.54,3.54,0,0,1,3.47-3.42,3.28,3.28,0,0,1,1.13.21c.25-.19.51-.37.77-.54l.6-.38c1-.61,1.85-1.19,2.63-1.78l.48-1a8.92,8.92,0,0,0-14.52,7Z" style="fill: none"/>
      <polygon points="249.23 153.62 249.23 153.62 249.24 153.62 249.23 153.62" style="fill: none"/>
      <path d="M168.8,137.93a2.06,2.06,0,0,0,.07-4.12c-.42,0-.84,0-1.25,0h-3.7V138h3.63C168,137.94,168.39,138,168.8,137.93Z" style="fill: #d9b850"/>
      <path d="M176.06,147.5A13,13,0,0,0,164,156h4.6a8.89,8.89,0,0,1,15.25,0h4.61A13.07,13.07,0,0,0,176.06,147.5Z" style="fill: #d9b850"/>
      <path d="M99.3,160.64a8.92,8.92,0,0,1,14.52-7c.6-1.24,1.2-2.49,1.79-3.73l0-.1a13.1,13.1,0,0,0-20.18,7.8c-.07.26-.17.52-.29.87-3,0-5.89.07-8.84,0a3.1,3.1,0,0,1-2.9-2.91c-.14-3,0-6,0-9.11,1,0,1.83,0,2.7,0,1.52,0,2.43-.81,2.45-2s-.89-2.06-2.4-2.1c-.77,0-1.55,0-2.49,0a7.45,7.45,0,0,1,3-4.78,39.78,39.78,0,0,1,4-2.69,8.67,8.67,0,0,0,3.7-4.29c1.66-3.7,3.44-7.36,5.24-11a10.5,10.5,0,0,1,10-6.27c4.44,0,8.87,0,13.31,0h1.7V136a20.26,20.26,0,0,1,4.15-2.64V101.93c0-3.76,1-4.8,4.74-4.8h63.61a6.38,6.38,0,0,0,1.64-.14,2,2,0,0,0-.3-4,11,11,0,0,0-1.52,0H133c-5.35,0-8.43,3.08-8.44,8.41V109c-.58,0-1.07.06-1.56.06-4.57,0-9.15-.08-13.72,0A14.44,14.44,0,0,0,96,117.48c-2,3.86-3.75,7.83-5.68,11.71A5.48,5.48,0,0,1,88.75,131c-1.21.93-2.51,1.73-3.78,2.56a12.18,12.18,0,0,0-5.73,10.35c-.14,3.74-.1,7.48,0,11.22a7.57,7.57,0,0,0,7.66,7.51c2.73,0,5.45,0,8.25,0,.13.35.27.68.36,1a13.37,13.37,0,0,0,6,8.13,21.06,21.06,0,0,1,.78-4.59A8.92,8.92,0,0,1,99.3,160.64Z" style="fill: #d9b850"/>
      <path d="M108.89,117.21c-1.54-.13-2.61.61-2.73,1.88s.71,2,2.24,2.26a3.48,3.48,0,0,1,3.33,3.44c.09,1.84.1,3.7,0,5.54a3.48,3.48,0,0,1-3.71,3.48c-3,0-6,0-9,0-1.63,0-2.59.75-2.63,2S97.34,138,99,138h4.71c1.52,0,3,0,4.57,0a7.41,7.41,0,0,0,7.45-6.63,41,41,0,0,0,0-7.59A7.44,7.44,0,0,0,108.89,117.21Z" style="fill: #d9b850"/>
      <path d="M179.45,106.17a2.13,2.13,0,0,0-2.12,2.11,2,2,0,0,0,2.18,2c1.94,0,3.87,0,5.81,0h7.62c4.34,0,8.68,0,13,0a2.94,2.94,0,0,0,2-.69,2.15,2.15,0,0,0,.45-1.95,3.09,3.09,0,0,0-1.93-1.42,23.28,23.28,0,0,0-4-.08H180.56A10.23,10.23,0,0,0,179.45,106.17Z" style="fill: #d9b850"/>
      <path d="M200.09,133.82h-4.3c-1.61,0-2.52.79-2.49,2.12s.9,2,2.44,2c1.28,0,2.55,0,3.82,0q0-.44-.06-.9A8.47,8.47,0,0,1,200.09,133.82Z" style="fill: #d9b850"/>
      <path d="M215.83,108.4a1.94,1.94,0,0,0,2,1.89c.82,0,1.66,0,2.48,0h0c.79,0,1.58,0,2.36,0a1.89,1.89,0,0,0,1.9-2,1.86,1.86,0,0,0-1.79-2.08,41.49,41.49,0,0,0-5.11,0A2,2,0,0,0,215.83,108.4Z" style="fill: #d9b850"/>
      <path d="M208.89,97a32.1,32.1,0,0,0,5.37,0,1.82,1.82,0,0,0,1.65-2.18A1.87,1.87,0,0,0,214,93c-.82-.06-1.65,0-2.48,0s-1.66,0-2.49,0a1.86,1.86,0,0,0-1.85,1.87A1.81,1.81,0,0,0,208.89,97Z" style="fill: #d9b850"/>
      <path d="M183.6,133.83c-.42,0-.83,0-1.25,0h0c-.46,0-.93,0-1.38,0A2,2,0,0,0,179,136a2,2,0,0,0,1.92,2,19.24,19.24,0,0,0,2.63,0,2,2,0,0,0,2.06-2A2,2,0,0,0,183.6,133.83Z" style="fill: #d9b850"/>
      <path d="M104.74,160.55a3.27,3.27,0,0,0,.19,1.13,18.57,18.57,0,0,1,4.41-4.34,3.28,3.28,0,0,0-1.13-.21A3.54,3.54,0,0,0,104.74,160.55Z" style="fill: #d9b850"/>
      <path d="M136.81,180.34a9,9,0,1,0,9,8.92A8.94,8.94,0,0,0,136.81,180.34Zm.1,12.4a3.47,3.47,0,0,1-3.49-3.51,3.54,3.54,0,0,1,3.47-3.42,3.47,3.47,0,0,1,3.47,3.54A3.41,3.41,0,0,1,136.91,192.74Z" style="fill: #fff"/>
      <path d="M230.33,174.24v9c0,2.53-1.4,3.92-4,3.93-2.81,0-5.62,0-8.45,0-.2-.68-.35-1.25-.53-1.82a13.12,13.12,0,0,0-12.65-9.2,13,13,0,0,0-12.4,9.51c-.36,1.32-1,1.54-2.17,1.53q-19.47-.06-38.94,0c-.84,0-1.37,0-1.64-1.11a13.09,13.09,0,0,0-25.44.19c-.07.27-.17.52-.28.87-3,0-5.9.07-8.84,0a3.09,3.09,0,0,1-2.9-2.9c-.14-3,0-6,0-9.12,1,0,1.83,0,2.7,0,1.52,0,2.43-.82,2.45-2s-.89-2.06-2.4-2.1c-.77,0-1.55,0-2.49,0a7.49,7.49,0,0,1,3-4.78c1.08-.77,2.16-1.54,3.28-2.23.25-.16.5-.31.76-.45a8.65,8.65,0,0,0,3.69-4.29c.4-.88.81-1.74,1.22-2.61,1.3-2.81,2.65-5.61,4-8.39l0-.06a10.52,10.52,0,0,1,9.92-6.22c2.26,0,4.53,0,6.79,0h8.22v32.2c0,.42,0,.84,0,1.25a2.08,2.08,0,1,0,4.14,0c0-2.31,0-4.62,0-6.93v-1.74h38.81c.41,0,.83,0,1.25,0a2.07,2.07,0,0,0,.06-4.13c-.41,0-.83,0-1.24,0H157.42V130.61c0-3.76,1-4.8,4.74-4.8h63.61a6,6,0,0,0,1.64-.15,2,2,0,0,0-.3-4,11,11,0,0,0-1.52,0H161.7c-5.34,0-8.42,3.08-8.43,8.41,0,2.49,0,5,0,7.62-.58,0-1.07.06-1.56.06-4.57,0-9.15-.08-13.72,0a14.46,14.46,0,0,0-13.32,8.4c-2,3.86-3.75,7.82-5.68,11.71a5.61,5.61,0,0,1-1.57,1.83c-1.2.92-2.5,1.73-3.78,2.56a12.22,12.22,0,0,0-5.73,10.35c-.14,3.73-.1,7.48,0,11.22a7.59,7.59,0,0,0,7.67,7.51c2.72,0,5.45,0,8.25,0,.12.36.27.69.36,1a13.09,13.09,0,0,0,25.41.18c.25-1,.58-1.23,1.56-1.23q19.81,0,39.63,0c.7,0,1.14,0,1.39.91,1.82,6.42,6.77,10.25,13,10.15A13.09,13.09,0,0,0,217.72,192a3.67,3.67,0,0,1,.25-.66h8.51a7.64,7.64,0,0,0,8-8c0-3.38,0-6.75,0-10.12,0,0,0,0,0-.07a2.06,2.06,0,1,0-4.12,0s0,.08,0,.13C230.32,173.59,230.33,173.92,230.33,174.24Zm-93.32,24a9,9,0,1,1,8.83-9A8.95,8.95,0,0,1,137,198.24Zm67.91-17.9a8.95,8.95,0,1,1-9,9A8.93,8.93,0,0,1,204.92,180.34Z" style="fill: #d9b850"/>
      <path d="M137.08,150a3.45,3.45,0,0,1,3.32,3.44,53.69,53.69,0,0,1,0,5.53,3.45,3.45,0,0,1-3.7,3.48c-3,0-6,0-9,0-1.63,0-2.59.74-2.63,2s.94,2.12,2.64,2.12h4.71c1.52,0,3,0,4.57,0a7.42,7.42,0,0,0,7.45-6.63,41.06,41.06,0,0,0,0-7.6,7.45,7.45,0,0,0-6.86-6.51c-1.54-.13-2.62.61-2.73,1.88S135.55,149.82,137.08,150Z" style="fill: #d9b850"/>
      <path d="M209.23,134.83c-.37,0-.74,0-1.1,0A2.14,2.14,0,0,0,206,137a2.06,2.06,0,0,0,2.18,2c1.94,0,3.88,0,5.82,0h7.62c4.33,0,8.67,0,13,0a2.94,2.94,0,0,0,2-.69,2.18,2.18,0,0,0,.45-1.95,3.13,3.13,0,0,0-1.94-1.43,23.15,23.15,0,0,0-4-.07Z" style="fill: #d9b850"/>
      <path d="M244.65,162.5H224.47c-1.61,0-2.52.79-2.49,2.11s.9,2,2.44,2h20.19c1.59,0,2.53-.81,2.5-2.11S246.17,162.5,244.65,162.5Z" style="fill: #d9b850"/>
      <path d="M236.6,149.48H221.07c-1.62,0-2.57.77-2.59,2.05s.92,2.09,2.53,2.1h15.52a2.62,2.62,0,0,0,2.41-1.06,2.11,2.11,0,0,0,0-2A2.51,2.51,0,0,0,236.6,149.48Z" style="fill: #d9b850"/>
      <path d="M246.34,134.88a2,2,0,0,0-1.83,2.19,1.93,1.93,0,0,0,2,1.9h.82c.56,0,1.11,0,1.67,0h0c.79,0,1.57.05,2.35,0a1.89,1.89,0,0,0,1.91-2,1.86,1.86,0,0,0-1.8-2.08c-.32,0-.65,0-1,0-.49,0-1-.05-1.48-.05C248.11,134.81,247.22,134.83,246.34,134.88Z" style="fill: #d9b850"/>
      <path d="M235.88,123.56a1.82,1.82,0,0,0,1.68,2.15l1.11.07c1,0,2.09,0,3.14,0l1.13-.07a1.83,1.83,0,0,0,1.65-2.18,1.87,1.87,0,0,0-1.88-1.85c-.3,0-.6,0-.9,0h-3.14c-.31,0-.62,0-.93,0A1.88,1.88,0,0,0,235.88,123.56Z" style="fill: #d9b850"/>
      <path d="M258.58,151.6a2,2,0,0,0,.83,1.63,2.24,2.24,0,0,0,1.19.38l1.85,0c.7,0,1.41,0,2.11,0h0a2,2,0,0,0,2-2,2.06,2.06,0,0,0-2-2.09h-.45c-.58,0-1.16,0-1.74,0h-1.81a2.48,2.48,0,0,0-1.26.41A2,2,0,0,0,258.58,151.6Z" style="fill: #d9b850"/>
      <path d="M249.24,153.62c.51,0,1,0,1.54,0h.38l.23,0a2,2,0,0,0,1.68-2.08,1.91,1.91,0,0,0-1.69-2l-.21,0c-.65,0-1.29-.06-1.94-.06s-1.28,0-1.92.06a2,2,0,0,0-1.93,2.12,2,2,0,0,0,2.06,2h1.8Z" style="fill: #d9b850"/>
      <path d="M208,165.58a1.88,1.88,0,0,0,1.66,1c.47,0,.93,0,1.4,0l1.23,0a2,2,0,0,0,2.06-2,2,2,0,0,0-2-2.14h-2.62a2.18,2.18,0,0,0-1.7,1.05,1.86,1.86,0,0,0-.24,1.07A2.51,2.51,0,0,0,208,165.58Z" style="fill: #d9b850"/>
      <path d="M136.89,185.81a3.54,3.54,0,0,0-3.47,3.42,3.47,3.47,0,0,0,3.49,3.51,3.41,3.41,0,0,0,3.45-3.39A3.47,3.47,0,0,0,136.89,185.81Z" style="fill: #d9b850"/>
      <path d="M204.86,192.74a3.47,3.47,0,0,0,3.52-3.49,3.54,3.54,0,0,0-3.45-3.45,3.46,3.46,0,0,0-3.49,3.52A3.4,3.4,0,0,0,204.86,192.74Z" style="fill: #d9b850"/>
    </g>
  </g>
  <g id="Layer_4" data-name="Layer 4">
    <circle cx="217.9" cy="217.9" r="62.1" style="fill: #fff"/>
  </g>
  <g id="Layer_2" data-name="Layer 2">
    <circle cx="217.9" cy="217.9" r="51.1" style="fill: url(#linear-gradient)"/>
  </g>
  <g id="Layer_5" data-name="Layer 5">
    <text transform="translate(205.84 249.23)" style="font-size: 92.7041244506836px;fill: #fff;font-family: Roboto-Regular, Roboto">!</text>
  </g>
</svg>
