<svg id="Layer_1" data-name="Layer 1" xmlns="http://www.w3.org/2000/svg" viewBox="0 0 300 300">
  <g>
    <path d="M248.29,168c2.21,0,3.29-1.11,3.29-3.36V61.85c0-1.49,0-3,0-4.47A2.61,2.61,0,0,0,250.3,55a5.16,5.16,0,0,0-2.31-.5q-10.28-.06-20.53,0h-7.27l-.26-1.68c-.13-.87-.26-1.71-.38-2.54-.29-2-1.29-2.92-3.33-2.92h-7.83q-7.3,0-14.61,0h0A3.1,3.1,0,0,0,190.61,50c-.08.89-.24,1.78-.39,2.67-.07.39-.14.77-.2,1.16l-.09.54h-24.8l-.26-1.63c-.13-.79-.26-1.57-.36-2.35-.27-2.25-1.25-3.13-3.47-3.14H138.87c-2.1,0-3.11.91-3.37,3-.1.78-.22,1.55-.35,2.34l-.27,1.73H110l-.24-1.76c-.12-.86-.23-1.7-.33-2.55a2.94,2.94,0,0,0-3.15-2.81H83.84c-2.13,0-3.11.88-3.4,3-.11.83-.25,1.67-.39,2.51l-.25,1.59H70.92q-9.56,0-19.11,0c-2.3,0-3.38,1.11-3.38,3.47q0,3.12,0,6.24l0,59.73q0,7.23,0,14.46V148q0,8.49,0,17a2.86,2.86,0,0,0,3,3.07c.48,0,1,0,1.43,0h5.91l.09.76a2.07,2.07,0,0,1,0,.4v2.57c0,2.49,0,5,0,7.46a3.29,3.29,0,0,0,.88,2.37,2.91,2.91,0,0,0,2.13.84l51.94,0H130.7l.05.88c0,.16,0,.26,0,.37v4.65q0,18.62,0,37.22a2.43,2.43,0,0,1-.47,1.41q-7.11,9.62-14.29,19.17a2.08,2.08,0,0,1-1.51.73c-1.7,0-3.39,0-5.12,0h-2.71a4.07,4.07,0,0,0-1,.1,3,3,0,0,0-2.1,3.14,2.86,2.86,0,0,0,2.88,2.61c2.8,0,5.61,0,8.42,0h74.31c1.55,0,3.11,0,4.66,0a3,3,0,0,0,2.14-.87,3,3,0,0,0,.78-2.14,2.86,2.86,0,0,0-3-2.86h-2.64c-1.85,0-3.7,0-5.55,0a2.34,2.34,0,0,1-1.6-.81,14.37,14.37,0,0,1-1-1.39l-.54-.77-3.71-5q-4.39-5.91-8.79-11.81a3.18,3.18,0,0,1-.6-1.8q0-17.69,0-35.37v-7.55l36.2,0h32.46a2.85,2.85,0,0,0,3.12-3l0-7.81V168h7.25ZM130.7,246.81h-7.79l7.79-10.47Zm38.59-10.46,7.84,10.48h-7.84ZM194.92,61.8c.14-1.1.28-2.19.44-3.28.08-.56.16-1.12.25-1.68.13-.82.26-1.64.36-2.47a1.21,1.21,0,0,1,1.31-1.23h5.94c3.21,0,6.41,0,9.61,0a1.48,1.48,0,0,1,1.3,1.08c.38,2.4.72,4.82,1.06,7.23l.19,1.37a1.29,1.29,0,0,1,0,.4l-.06.56-.59.14H194.63Zm-55-.35c.19-1.38.37-2.74.56-4.09.06-.41.12-.82.19-1.23.09-.6.18-1.2.25-1.8a1.22,1.22,0,0,1,1.37-1.19h5.93c3.18,0,6.36,0,9.54,0a1.4,1.4,0,0,1,1.28,1c.4,2.51.75,5,1.12,7.63l.31,2.15H139.57Zm-54.51-4c.15-1,.3-2,.42-3.06a1.24,1.24,0,0,1,1.38-1.25h0c5.15,0,10.31,0,15.46,0a1.43,1.43,0,0,1,1.3,1c.41,2.65.77,5.31,1.14,8l.15,1.07-.26.67-.47.09h-20Zm77.88,189.34H136.72V182.48h26.56Zm71.81-70.32H64.92v-8.4H235.09ZM54.38,162.11V60.38H79l-.29,2.22c-.15,1.11-.29,2.22-.47,3.32a3.63,3.63,0,0,0,.58,3,3.51,3.51,0,0,0,2.76,1h26.82a3,3,0,0,0,3.33-3.72c-.13-1.17-.3-2.33-.48-3.52l-.33-2.3H134l-.3,2.19c-.15,1.08-.29,2.14-.46,3.2a3.76,3.76,0,0,0,.55,3.12,3.66,3.66,0,0,0,2.9,1q13.41,0,26.83,0a2.92,2.92,0,0,0,3.21-3.59c-.12-1.19-.29-2.37-.47-3.57l-.33-2.4h23.14l-.76,5.36a3.79,3.79,0,0,0,.38,2.92,3.27,3.27,0,0,0,3,1.29H217c.6,0,1.2,0,1.8,0a3.2,3.2,0,0,0,2.4-1,3.23,3.23,0,0,0,.65-2.53c-.07-.59-.15-1.18-.23-1.76l-.6-4.25h24.59V162.11Z" style="fill: #d9b850"/>
    <path d="M168.29,125.12c-.54-6.46-4.19-12.55-10.3-17.14-1.49-1.31-3.09-2.52-4.64-3.7C149,101,145,98,143.05,93.11c-1.36-2.72-1.22-6.44.32-8.08.92-1,2.4-1.13,4.16-.4,3.69,2,3.72,3.55,3.78,6.28a19.75,19.75,0,0,0,.44,4.3l.29.7c1,2.23,2.75,2.54,3.91,2.13l.34-.18A5,5,0,0,0,158,96v0l.11-.31a4.18,4.18,0,0,0,.31-1.29l-.08-.09.09-.27a12,12,0,0,0-1.74-4.79L155.23,86l-.1.16-.51-.92a10.4,10.4,0,0,0-6.4-4.8c-2.9-1.2-6.19.06-8.15,1.49-4.62,4.39-5.32,12.55-1.49,18.16,1.75,2.88,4.34,5,6.85,7l.32.26c1.47,1.26,3,2.47,4.34,3.53a62.4,62.4,0,0,1,8.71,7.82,16.22,16.22,0,0,1,1.06,17.84,12.77,12.77,0,0,1-13.12,6.72c-5.28-.62-10.55-4-14.09-9.14a12.64,12.64,0,0,1,2-16.93c4.06-3.28,9-2.52,13.27,2a10.42,10.42,0,0,1,1.89,7.2l-.15,1-1.34-.78a4,4,0,0,0-4.73,2.68,3.84,3.84,0,0,0,1.83,5l.37.12a7.47,7.47,0,0,0,6.38-1.74,9.06,9.06,0,0,0,3.33-6.88,10.85,10.85,0,0,0-.88-5.57c-2.08-4.83-5.79-8.22-10.22-9.33a12.62,12.62,0,0,0-3.17-.39,14.41,14.41,0,0,0-13.29,9.07c-4.29,9.86,1,19.11,8.17,23.92a23,23,0,0,0,12.62,4,17.82,17.82,0,0,0,13-5.55C166.52,137,168.79,131.16,168.29,125.12Z" style="fill: #d9b850"/>
    <path d="M148.71,147.58a23,23,0,0,1-12.62-4c-7.16-4.81-12.46-14.06-8.17-23.92a14.41,14.41,0,0,1,13.29-9.07,12.62,12.62,0,0,1,3.17.39c4.43,1.11,8.14,4.5,10.22,9.33a10.85,10.85,0,0,1,.88,5.57,9.06,9.06,0,0,1-3.33,6.88,7.47,7.47,0,0,1-6.38,1.74l-.37-.12a3.84,3.84,0,0,1-1.83-5,4,4,0,0,1,4.73-2.68l1.34.78.15-1a10.42,10.42,0,0,0-1.89-7.2c-4.25-4.55-9.21-5.31-13.27-2a12.64,12.64,0,0,0-2,16.93c3.54,5.1,8.81,8.52,14.09,9.14a12.77,12.77,0,0,0,13.12-6.72,16.22,16.22,0,0,0-1.06-17.84,62.4,62.4,0,0,0-8.71-7.82c-1.35-1.06-2.87-2.27-4.34-3.53l-.32-.26c-2.51-2-5.1-4.16-6.85-7-3.83-5.61-3.13-13.77,1.49-18.16,2-1.43,5.25-2.69,8.15-1.49a10.4,10.4,0,0,1,6.4,4.8l.51.92.1-.16,1.47,3.23A12,12,0,0,1,158.44,94l-.09.27.08.09a4.18,4.18,0,0,1-.31,1.29L158,96v0a5,5,0,0,1-1.71,1.83L156,98c-1.16.41-2.89.1-3.91-2.13l-.29-.7a19.75,19.75,0,0,1-.44-4.3c-.06-2.73-.09-4.24-3.78-6.28-1.76-.73-3.24-.58-4.16.4-1.54,1.64-1.68,5.36-.32,8.08,1.94,4.84,6,7.91,10.3,11.17,1.55,1.18,3.15,2.39,4.64,3.7,6.11,4.59,9.76,10.68,10.3,17.14.5,6-1.77,11.89-6.56,16.91A17.82,17.82,0,0,1,148.71,147.58Z" style="fill: #d9b850"/>
  </g>
</svg>
