<svg id="Layer_1" data-name="Layer 1" xmlns="http://www.w3.org/2000/svg" viewBox="0 0 300 300">
  <g>
    <path d="M239.42,123.05c-6.23-.74-8.7-3.45-9.66-5.59s-1.4-6,2.38-11.5c.44-.64.91-1.27,1.35-1.88.62-.84,1.21-1.64,1.74-2.46,4.44-6.88,4-14.76-1.25-20.59A186.23,186.23,0,0,0,219.24,66.3c-6.15-5.48-13.79-5.95-21-1.28-.93.6-1.82,1.25-2.77,1.94-.65.47-1.32,1-2,1.42-3.86,2.66-8,3.31-11.3,1.78-3.13-1.44-5.1-4.57-5.54-8.79-1-10-5.43-16.3-13.81-19.74H137.08c-9,3-13.67,9.29-14.22,19.06-.42,7.38-4.77,9.63-8.34,10.21a10.12,10.12,0,0,1-6.08-.9,35.73,35.73,0,0,1-4.56-3c-.85-.63-1.65-1.22-2.49-1.77-6.9-4.55-14.59-4.13-20.55,1.13A180.92,180.92,0,0,0,66,81c-5.61,6.22-6,14-1.19,21.33.6.9,1.25,1.81,1.87,2.69s1.19,1.67,1.77,2.54c2.4,3.58,3,7.42,1.49,10.53s-4.36,4.85-8.34,5.27c-10.83,1.14-17.19,5.81-20,14.69v24.88c3,8.85,8.89,13.4,18.55,14.31l1.08.07c2.73.18,6.86.44,8.76,5.4,1.37,3.6,2.14,7.47-1.53,11.36a26,26,0,0,0-2.93,4.1l-.49.77c-4.4,6.92-4,14.26,1.2,20.12a173.12,173.12,0,0,0,15.4,15.36c5.68,5,13.38,5.44,20.09,1.05,1.07-.7,2.16-1.46,3.21-2.19s1.87-1.31,2.83-2c3.45-2.29,7.13-2.79,10.11-1.36s4.64,4.32,5,8.11c.93,10.66,5.45,17.12,14.22,20.3h25.78c8.61-3.13,13.11-9.45,14.17-19.85.42-4.16,2.4-7.35,5.42-8.76s6.94-.86,10.52,1.58c.73.5,1.45,1,2.15,1.53a37.81,37.81,0,0,0,4.54,3c4.68,2.48,11.65,4.28,18.27-1.27a151.61,151.61,0,0,0,16.4-16.32c4.55-5.16,5.06-12.59,1.28-18.94-.94-1.59-2-3.09-3.12-4.68-.48-.68-1-1.39-1.46-2.1-2.23-3.27-2.7-7.08-1.23-10.17s4.43-4.95,8.24-5.29c10.66-1,17.12-5.48,20.3-14.21V137.1C255.38,128.71,249.35,124.24,239.42,123.05Zm10.33,35.24c-.13,5.3-3,8.66-8.17,9.47-3.09.48-6.38,1-9.67,1.54a30.9,30.9,0,0,0-3.57.75c-2.26.69-5.25,5-7.12,10.34s-2.19,10.11-.91,12c1.14,1.67,2.34,3.34,3.5,5,1.27,1.78,2.58,3.62,3.84,5.47,2.63,3.86,2.34,7.93-.8,11.15-4.93,5.07-9,9.17-12.89,12.88-3.4,3.27-7.52,3.46-11.59.52l-1.52-1.09c-2.61-1.89-5.31-3.85-8-5.63a30.17,30.17,0,0,0-3.55-1.88l-1.06-.5-4.2,1.88c-4.57,2-8.88,3.94-13,6.21-.56.46-1.11,3-1.31,3.89l-.08.34c-.58,2.6-1,5.32-1.36,8-.15,1-.3,2-.46,3-.8,5.14-4.16,8-9.46,8.17-2.44.05-4.9.07-7.34.07-2.63,0-5.25,0-7.82,0H142c-5.51-.05-9-3-9.85-8.35l-.13-.8c-.43-2.75-.87-5.6-1.34-8.39a35.89,35.89,0,0,0-.73-3.63c-.62-2.27-4.79-5.3-9.9-7.21s-9.91-2.29-11.82-1c-3.24,2.17-6.57,4.55-9.9,7.06-5.53,4.17-9.8,2-12.41-.62l-2.28-2.25c-3.26-3.23-6.63-6.56-9.91-9.89-3.57-3.63-3.86-7.89-.83-12,2.17-2.94,4.41-6.05,6.83-9.53,1.64-2.34,1.24-7.74-1-13.12s-5.53-9.29-8.31-9.81-5.73-1-8.54-1.45l-3.5-.58c-5.17-.85-8.08-4.21-8.19-9.45s-.06-10.56,0-15.71v-.55c0-5.48,3-9,8.35-9.87,1.37-.23,2.74-.44,4.12-.66,2.45-.38,5-.78,7.45-1.24,2.62-.49,6-4.55,8.18-9.87s2.68-10.5,1.19-12.68c-2.19-3.18-4.55-6.59-7.06-9.91-3.29-4.35-3-8.64.7-12.41L75.4,83.6C78.64,80.34,82,77,85.34,73.69c3.63-3.54,7.89-3.83,12-.8,3.14,2.31,6.51,4.76,9.92,7.07,2.23,1.51,7.43,1.05,12.65-1.13s9.37-5.65,9.88-8.35c.79-4.22,1.44-8,2-11.52.86-5.7,4.34-8.72,10.07-8.74h.45c5,0,10.18,0,15.28,0,5.5,0,9,3,9.86,8.33.59,3.63,1.2,7.38,1.85,11.11q.06.36.12.75a5.42,5.42,0,0,0,.41,1.71c2.49,3.67,6.5,4.92,10.75,6.23a43.2,43.2,0,0,1,6.73,2.52s.55.24,2.32-.34a31.78,31.78,0,0,0,4.1-1.82,44,44,0,0,0,6.41-4.32l2.17-1.63c4.22-3.07,8.48-2.87,12,.57,3.83,3.74,7.81,7.72,12.53,12.52,3.34,3.4,3.62,7.51.79,11.56l-3.66,5.2-2.56,3.63c-.23.32-.46.64-.7,1a13.44,13.44,0,0,0-1.33,2c-.78,1.58-.15,6.12,2.57,11.73s5.84,8.84,7.56,9.21c3.64.78,7.43,1.36,11.09,1.92l.86.13c5.36.81,8.33,4.3,8.35,9.82,0,1,0,2,0,2.94C249.82,149.33,249.85,153.84,249.75,158.29Z" style="fill: #d9b850"/>
    <path d="M179.53,120.94a41.22,41.22,0,0,0-29.36-12.52H150c-22.41,0-41.44,18.87-41.59,41.29s18.71,41.66,41.17,41.87H150c22.32,0,41.33-18.71,41.61-41.05A41.32,41.32,0,0,0,179.53,120.94ZM172,172.05a31,31,0,0,1-22,9.26h0a31.31,31.31,0,0,1,0-62.62h0a31.18,31.18,0,0,1,22,53.36Z" style="fill: #d9b850"/>
  </g>
</svg>
