<svg id="Layer_1" data-name="Layer 1" xmlns="http://www.w3.org/2000/svg" viewBox="0 0 300 300">
  <g>
    <path d="M153.74,213.6a8,8,0,0,0-3.21-.52c-6.32,0-12.75,0-19,0-6.45,0-13.11,0-19.67,0a21.72,21.72,0,0,1-4.8-.6c-2.41-.56-3.56-2.13-3.53-4.82.1-8.32.08-16.79.07-25,0-2.46,0-4.92,0-7.38,0-3.85-1.22-5.09-5-5.1H67.41c-4.74,0-6.1-1.23-6.65-6a27.53,27.53,0,0,1-.11-3v-.14q0-8.41,0-16.83V74.18c0-8.8,0-17.89,0-26.84v-.15a3.24,3.24,0,0,1,.67-2.47A3,3,0,0,1,63.49,44c10.09,0,20.36-.09,30.29-.15,9.26-.05,18.84-.11,28.26-.14,3.43,0,6.91.08,10.28.16,2.91.07,5.92.14,8.87.16,10,0,20.11,0,29.93,0h15.69V149.33l-1.67-1.59-1-1c-.54-.51-.93-.88-1.32-1.27q-2.58-2.58-5.15-5.17c-3.53-3.55-7.18-7.22-10.82-10.76A19.17,19.17,0,0,0,153.43,124a18.5,18.5,0,0,0-12.49,4.86,18.74,18.74,0,0,0-2.17,25.79l6,7.79c3.86,5,7.86,10.15,11.71,15.28a9.26,9.26,0,0,1,1.67,5c.11,3,.1,6.05.08,9,0,1.94,0,4,0,5.91A31.78,31.78,0,0,0,171,223.38a31.07,31.07,0,0,0,18.85,6.54c2.49,0,4.16-1.3,4.24-3.45s-1.36-3.62-3.9-3.8l-.51,0-.66,0c-13.78-1.14-23.43-11.59-23.46-25.42,0-1.16,0-2.32,0-3.48,0-4.36,0-8.86,0-13.3A7.94,7.94,0,0,0,163.8,175C157,166.44,151,158.66,145,150.7a16.12,16.12,0,0,1-2.93-7.18c-.59-4.62,2.17-9.13,6.87-11.21,4.39-1.95,9.39-.88,13.06,2.78q8.22,8.19,16.41,16.39c6,6,12.22,12.22,18.33,18.31a4.5,4.5,0,0,0,3.18,1.52,3.55,3.55,0,0,0,2.53-1.27c1.46-1.6,1.17-3.75-.75-5.61l-1.3-1.24a48.57,48.57,0,0,1-4.45-4.61,8.64,8.64,0,0,1-1.94-4.86c-.08-3.92,0-7.9,0-11.75,0-2.4.07-4.88.07-7.32,0-26.46,0-53.36,0-79.38V41.78c0-4-1.12-5.1-5.2-5.1H58.81c-4.41,0-5.49,1.09-5.49,5.57q0,21.6,0,43.21v62.85c0,1.54.06,3.12.11,4.65.09,2.53.18,5.14,0,7.72A19.92,19.92,0,0,0,59.72,177c11.39,11.21,22.84,22.72,33.93,33.86l3.62,3.64A18.61,18.61,0,0,0,111,220.4h.09c8.92,0,18,0,26.75,0h12.79a14.22,14.22,0,0,0,2-.09,3.27,3.27,0,0,0,3-3A3.13,3.13,0,0,0,153.74,213.6ZM96.12,201.87l-24-24.18h24Z" style="fill: #d9b850"/>
    <path d="M246.6,245.58c-.06-2.54-1.41-3.79-4.12-3.83-1.52,0-3.07,0-4.57,0h-2.22c-4.11,0-4.54-.32-5.78-4.24-.21-.65-.45-1.3-.72-2-.75-2-1.53-4.09-1.34-6.17.85-9.22,1.85-18.59,2.82-27.64.94-8.76,1.91-17.82,2.74-26.73.21-2.23.48-4.48.75-6.65.71-5.9,1.45-12,.93-18.1a40.24,40.24,0,0,0-10.28-24.42c-4.25-4.74-8.66-9.48-12.94-14.06l-3.77-4a5.23,5.23,0,0,0-3-1.8,3.2,3.2,0,0,0-2.67,1c-1.67,1.55-1.53,3.72.36,5.8,1.49,1.63,3,3.27,4.51,4.86,2.53,2.71,5.14,5.51,7.63,8.34l.29.34a97,97,0,0,1,8.47,10.63,29.72,29.72,0,0,1,4.67,17.81c-.16,3.6-.64,7.23-1.11,10.74-.26,1.93-.52,3.94-.73,5.9-.62,5.83-1.23,11.75-1.82,17.48-1.16,11.18-2.35,22.75-3.65,34.11-.63,5.56-1,10.55,1.39,15.36a5.28,5.28,0,0,1,.39,1.48c.05.26.09.54.16.85l.26,1.2H167.64c-3.46,0-4.32.85-4.36,4.34,0,2.2,0,4.45-.05,6.62s0,4.25,0,6.38c0,1.52.4,4.08,3.36,4.24a3.2,3.2,0,0,0,2.37-.79,4.71,4.71,0,0,0,1.3-3.34c0-.4,0-.8,0-1.2.07-1.79.15-3.64.05-5.43a3.51,3.51,0,0,1,.71-2.7,3.58,3.58,0,0,1,2.69-.86h0c15.13.05,30.51,0,45.39,0h16.51c.57,0,1.13,0,1.77.08l1,.07.93.05v.93c0,1,0,2,0,3,0,2.17,0,4.22,0,6.28.06,2.34,1.46,3.87,3.56,3.89H243a3.66,3.66,0,0,0,3.65-3.8C246.72,254.82,246.72,250.14,246.6,245.58Z" style="fill: #d9b850"/>
    <path d="M87.89,84.41H86.68a11.61,11.61,0,0,0-1.46.07A3.53,3.53,0,0,0,82,88.23c.1,2.21,1.74,3.47,4.49,3.48H123v0H134c9,0,18.38,0,27.57,0a4,4,0,0,0,2.93-1.11,3.57,3.57,0,0,0,1-2.64c0-2-1.61-3.43-4-3.51-.44,0-.89,0-1.36,0H87.89Z" style="fill: #d9b850"/>
    <path d="M82.12,108.07c.44,1.81,1.88,2.7,4.41,2.7h74.41a7.72,7.72,0,0,0,2-.22,3.55,3.55,0,0,0,2.34-2.11,3.6,3.6,0,0,0-.28-3.16c-.75-1.26-1.92-1.8-3.89-1.8h0c-9.78,0-19.72,0-29.34,0H95.16c-3,0-6.12,0-9.16,0a4.09,4.09,0,0,0-3.3,1.43A3.64,3.64,0,0,0,82.12,108.07Z" style="fill: #d9b850"/>
    <path d="M101.17,69.79A3.53,3.53,0,0,0,105,72.6c4.42,0,8.93,0,13.28,0h5.53l4.86,0c4.41,0,9,0,13.46-.11a4.83,4.83,0,0,0,3.32-1.44,3.64,3.64,0,0,0,.62-3.82,4.45,4.45,0,0,0-4.09-2h-.07c-7.9.07-15.94.06-23.71,0-4.25,0-8.64,0-13,0a5.26,5.26,0,0,0-2.09.36A3.48,3.48,0,0,0,101.17,69.79Z" style="fill: #d9b850"/>
  </g>
</svg>
