<svg id="Layer_1" data-name="Layer 1" xmlns="http://www.w3.org/2000/svg" viewBox="0 0 300 300">
  <g>
    <g>
      <path d="M206.83,119.86a6.05,6.05,0,0,0-.5-3.19,9.15,9.15,0,0,0-5.94-5.44,8.23,8.23,0,0,0-8.47,3.15c.31.13.62.28.92.43,2.47-2.91,6.76-3.81,10.64.42a7,7,0,0,1,1.08,6.27.61.61,0,0,1-.1.26,2.54,2.54,0,0,1-1.55-.54,1.65,1.65,0,0,0-1.83.73,21.26,21.26,0,0,1,1.59,2.7A4.85,4.85,0,0,0,206.83,119.86Z" style="fill: #d9b850"/>
      <path d="M208.68,109.13c-3.35-2.95-7.9-5.28-9.65-9.65-1.57-3.17-.52-8.38,4-6.48,3.82,2.11,2.32,3.94,3,7.14,0,0,0,.07,0,.11a.15.15,0,0,1,0,.07.08.08,0,0,1,0,0c.4,1,1,1.27,1.54,1.09a2.47,2.47,0,0,0,.86-.89,2.35,2.35,0,0,0,.18-.82,9.33,9.33,0,0,0-1.35-3.41l0-.06h0c-.31-.56-.61-1.11-.88-1.67a5.78,5.78,0,0,0-3.71-2.8,4.6,4.6,0,0,0-4.29.74c-2.76,2.62-3,7.47-.84,10.58a18.83,18.83,0,0,0,4.39,4.43c2.83,2.43,6,4.51,8.41,7.34,4.63,5.92,1.58,15.52-5.5,16.83.05.34.11.67.15,1a10.51,10.51,0,0,0,6-3.13C217.4,122.93,215.79,114.47,208.68,109.13Z" style="fill: #d9b850"/>
      <path d="M281,86.63c-8.4-8.41-16.77-16.84-25.21-25.2A35.39,35.39,0,0,0,230,50.89q-27.33,0-54.65,0a35.33,35.33,0,0,0-25.78,10.56Q136.95,74,124.38,86.65c-1.88,1.88-1.88,3.48,0,5.37q10.06,10.08,20.15,20.15h5.84c2.43-2.39,4.82-4.82,7.24-7.23.3-.3.65-.56,1.07-.92v8.15h4.77v-36c0-.42,0-.83,0-1.25-.05-1.67-1-2.72-2.36-2.71s-2.29,1-2.3,2.73c0,6.85,0,13.7,0,20.55a3.64,3.64,0,0,1-1.24,2.94c-3.4,3.28-6.7,6.65-10,9.91L128.49,89.2c.15-.16.41-.48.69-.76Q141,76.67,152.74,64.89a31.14,31.14,0,0,1,20.47-9.29c3.28,16.72,12.87,27.05,30.3,26.67,16.58-.35,25.63-10.61,28.65-26.65A30.78,30.78,0,0,1,249.45,62a32.08,32.08,0,0,1,3,2.67q12,11.92,23.89,23.88c.22.22.42.45.55.59l-19.15,19.14c-2.89-2.9-5.81-6-9-8.93a6.29,6.29,0,0,1-2.2-5.36c.15-6.12,0-12.25,0-18.37,0-.41,0-.83,0-1.24a2.15,2.15,0,0,0-2.18-2.19,2.18,2.18,0,0,0-2.41,2A8.84,8.84,0,0,0,242,75.9q0,21.1,0,42.23v29.1a36,36,0,0,1,4.76,6V103.82c2.93,3,5.61,5.67,8.32,8.37,2.17,2.17,3.64,2.17,5.82,0L279.6,93.47c1-1,1.88-2,2.82-3V88.24C282,87.7,281.52,87.13,281,86.63Zm-78.39-8.81c-15.29-.07-23.91-12.67-24.29-22.17l.74-.09c1.49-.18,2.69,0,2.56,2a3.7,3.7,0,0,0,.24,1c.43,1.63,1.56,2.43,2.92,2.07s2-1.51,1.63-3.19c-.11-.56-.21-1.11-.34-1.79h33.34a42,42,0,0,1-1.25,4.14,16.84,16.84,0,0,1-26.06,6.5,5.68,5.68,0,0,0-1.53-1,2.16,2.16,0,0,0-2.71.93,2.19,2.19,0,0,0,.53,3.06A20.54,20.54,0,0,0,200,74.52c11.9,1.31,21.87-6.24,24-18.08.05-.25.14-.5.23-.8h2.9C226.62,65.48,217.75,77.88,202.63,77.82Z" style="fill: #d9b850"/>
    </g>
    <g>
      <path d="M93.32,231.93H80.07c-7.39,0-12.42-5.08-12.45-12.5,0-5.24,0-10.49,0-15.74a3.19,3.19,0,0,1,3.28-3.48c1.9,0,3.08,1.37,3.16,3.59,0,.5,0,1,0,1.51,0,4.67,0,9.35,0,14,0,3.94,2.18,6.11,6.16,6.13,4.37,0,8.75,0,13.15,0,.31-1.05.55-2,.83-2.83a20.39,20.39,0,0,1,19.69-14.31,20.15,20.15,0,0,1,19.29,14.79c.56,2,1.48,2.4,3.38,2.39q30.3-.1,60.6,0c1.31,0,2.13-.06,2.56-1.73a20.36,20.36,0,0,1,39.58.3c.11.42.26.82.44,1.36,4.59,0,9.18.11,13.76,0a4.83,4.83,0,0,0,4.52-4.51c.21-4.65.06-9.3.06-14.2-1.5,0-2.85,0-4.2,0-2.37-.06-3.79-1.27-3.82-3.2s1.39-3.2,3.73-3.27c1.21,0,2.42,0,3.88,0a11.62,11.62,0,0,0-4.64-7.44,66.46,66.46,0,0,0-6.28-4.18,13.38,13.38,0,0,1-5.75-6.68c-2.59-5.76-5.36-11.45-8.16-17.11-3.15-6.38-8.35-9.7-15.49-9.77-6.9-.07-13.8,0-20.71,0H194V205.1c0,.65,0,1.29,0,1.94-.08,2.14-1.4,3.57-3.24,3.54s-3.17-1.47-3.2-3.62c0-3.6,0-7.19,0-10.79v-2.7H185l-57.8,0c-.65,0-1.3,0-1.94,0a3.21,3.21,0,0,1-.11-6.42,18,18,0,0,1,1.94,0l57.59,0h2.92V137.4c0-5.84-1.61-7.47-7.38-7.47h-99a9.47,9.47,0,0,1-2.56-.24,3.16,3.16,0,0,1,.47-6.15,17,17,0,0,1,2.37-.08h99.42c8.32,0,13.12,4.79,13.13,13.09,0,3.87,0,7.75,0,11.85.9,0,1.66.11,2.43.11,7.11,0,14.23-.14,21.35,0,9.44.22,16.44,4.65,20.74,13.06,3.06,6,5.82,12.18,8.82,18.23a8.75,8.75,0,0,0,2.44,2.84c1.88,1.45,3.9,2.71,5.89,4,5.85,3.79,8.66,9.32,8.92,16.11.21,5.81.15,11.64,0,17.46a11.79,11.79,0,0,1-11.93,11.69c-4.24.05-8.48,0-12.84,0-.2.55-.42,1.06-.56,1.59a20.38,20.38,0,0,1-39.55.29c-.39-1.48-.91-1.92-2.42-1.92q-30.84.08-61.68,0c-1.1,0-1.78.09-2.16,1.43-2.85,10-10.55,15.95-20.24,15.79A20.37,20.37,0,0,1,93.71,233,8.33,8.33,0,0,0,93.32,231.93Zm140.05-3.15a13.9,13.9,0,1,0-14.06,13.88A13.9,13.9,0,0,0,233.37,228.78Zm-105.79,0a13.9,13.9,0,1,0-13.86,13.86A13.95,13.95,0,0,0,127.58,228.79Z" style="fill: #d9b850"/>
      <path d="M226.44,193.47c-2.37,0-4.74,0-7.11,0a11.56,11.56,0,0,1-11.6-10.33,63.83,63.83,0,0,1,0-11.81,11.6,11.6,0,0,1,10.68-10.14c2.4-.2,4.07.95,4.25,2.93s-1.1,3.19-3.48,3.51c-3.1.41-5,2.26-5.18,5.35a85.46,85.46,0,0,0,0,8.62c.16,3.34,2.38,5.37,5.76,5.41,4.67.06,9.34,0,14,0,2.54,0,4,1.16,4.09,3.12s-1.46,3.3-4.11,3.31Z" style="fill: #d9b850"/>
      <path d="M87.64,150.45c-6.75,0-13.51.05-20.26,0a4.63,4.63,0,0,1-3.06-1.06,3.37,3.37,0,0,1-.7-3,4.84,4.84,0,0,1,3-2.22,35.91,35.91,0,0,1,6.23-.12h34.05c.58,0,1.15,0,1.72,0a3.32,3.32,0,0,1,3.31,3.28,3.2,3.2,0,0,1-3.4,3.15c-3,.06-6,0-9.05,0Z" style="fill: #d9b850"/>
      <path d="M67.35,193.47c-5.16,0-10.33,0-15.49,0-2.49,0-4-1.27-3.91-3.28S49.43,187,51.78,187q15.72,0,31.42,0c2.51,0,3.91,1.23,3.88,3.29s-1.4,3.13-3.81,3.14C78,193.49,72.66,193.47,67.35,193.47Z" style="fill: #d9b850"/>
      <path d="M76.29,173.23c-4,0-7.91,0-11.86,0-2.69,0-4.19-1.21-4.15-3.28s1.51-3.17,4-3.17H88.48c2.52,0,4,1.2,4,3.18s-1.45,3.26-4,3.27C84.48,173.25,80.39,173.23,76.29,173.23Z" style="fill: #d9b850"/>
      <path d="M45,150.42c-1.22,0-2.44.08-3.66,0a3,3,0,0,1-3-3.09,2.9,2.9,0,0,1,2.79-3.24,63.9,63.9,0,0,1,7.95,0A3.06,3.06,0,0,1,52,147.47a3,3,0,0,1-3.1,2.95c-1.29.06-2.59,0-3.88,0Z" style="fill: #d9b850"/>
      <path d="M58.68,123.49c1.29,0,2.58-.08,3.86,0a2.9,2.9,0,0,1,2.89,2.91,2.85,2.85,0,0,1-2.61,3.36,50.85,50.85,0,0,1-8.37,0c-1.78-.15-2.72-1.56-2.57-3.39a2.91,2.91,0,0,1,2.93-2.88C56.09,123.42,57.39,123.49,58.68,123.49Z" style="fill: #d9b850"/>
      <path d="M24.08,166.78c.93,0,1.87-.05,2.8,0a3.16,3.16,0,0,1,3.23,3.28A3.09,3.09,0,0,1,27,173.2q-3.12.13-6.23,0a3.16,3.16,0,0,1-3.16-3.14,3.22,3.22,0,0,1,3.07-3.26c1.14-.09,2.29,0,3.43,0Z" style="fill: #d9b850"/>
      <path d="M44.66,173.22c-1,0-2,.08-3,0a3.13,3.13,0,0,1-3-3.3,3,3,0,0,1,3-3.08,46.2,46.2,0,0,1,6,0,3.13,3.13,0,0,1,3,3.29,3.18,3.18,0,0,1-3.2,3.1c-.92.06-1.86,0-2.79,0Z" style="fill: #d9b850"/>
      <path d="M104.12,187c.71,0,1.44,0,2.15,0a3.18,3.18,0,0,1,3,3.3,3.06,3.06,0,0,1-3,3.08,31,31,0,0,1-4.09,0A3.09,3.09,0,0,1,99,190.38a3.15,3.15,0,0,1,3.19-3.33c.64-.05,1.29,0,1.94,0Z" style="fill: #d9b850"/>
      <path d="M219.46,234.1a5.3,5.3,0,0,1-5.36-5.28,5.42,5.42,0,0,1,5.4-5.51,5.5,5.5,0,0,1,5.4,5.33A5.39,5.39,0,0,1,219.46,234.1Z" style="fill: #d9b850"/>
      <path d="M113.72,234.1a5.38,5.38,0,0,1-5.47-5.43,5.49,5.49,0,0,1,5.36-5.36,5.39,5.39,0,0,1,5.43,5.47A5.29,5.29,0,0,1,113.72,234.1Z" style="fill: #d9b850"/>
    </g>
  </g>
</svg>
