<svg xmlns="http://www.w3.org/2000/svg" viewBox="0 0 350 350">
  <g id="Layer_5" data-name="Layer 5">
    <g>
      <path d="M60,312.56H186.09c19.45,0,35.27-16.14,35.27-36v-67H199v67a13.15,13.15,0,0,1-12.94,13.31H60A13.15,13.15,0,0,1,47,276.59V73.41A13.15,13.15,0,0,1,60,60.1H186.09A13.15,13.15,0,0,1,199,73.41v76.91h22.33V73.41c0-19.83-15.82-36-35.27-36H60c-19.45,0-35.27,16.14-35.27,36V276.59C24.7,296.42,40.52,312.56,60,312.56Z" style="fill: #fff"/>
      <path d="M285.46,168.69H126.18a11.67,11.67,0,0,0,0,23.33H282.79l-46.05,47.26a12.65,12.65,0,0,0,.07,17.63,12.18,12.18,0,0,0,8.72,3.64h.05a12.14,12.14,0,0,0,8.73-3.71l67.45-69.23a12.64,12.64,0,0,0-.07-17.62l-68-68.69A12.14,12.14,0,0,0,245,97.66H245a12.16,12.16,0,0,0-8.74,3.71,12.65,12.65,0,0,0,.07,17.63Z" style="fill: #fff"/>
    </g>
  </g>
</svg>
